solid MATLAB_1
facet normal -0.159899697 0.0610206984 -0.985245407
  outer loop
   vertex 20.0005608 0 0.0252
   vertex 19.8778191 0 0.0451200008
   vertex 24.9083652 13 0.0338400006
  endloop
 endfacet
facet normal 0 1 0
  outer loop
   vertex 20.0005608 0 0.0252
   vertex 19.9994392 0 -0.0252
   vertex 19.8778191 0 0.0451200008
  endloop
 endfacet
facet normal -0.933144927 0.358901888 0.0207365528
  outer loop
   vertex 20.0005608 0 0.0252
   vertex 25.0004196 13 0.0188999996
   vertex 24.9995804 13 -0.0188999996
  endloop
 endfacet
facet normal -0.159899697 0.0610206984 -0.985245407
  outer loop
   vertex 20.0005608 0 0.0252
   vertex 24.9083652 13 0.0338400006
   vertex 25.0004196 13 0.0188999996
  endloop
 endfacet
facet normal -0.933144927 0.358901888 0.0207365528
  outer loop
   vertex 20.0005608 0 0.0252
   vertex 24.9995804 13 -0.0188999996
   vertex 19.9994392 0 -0.0252
  endloop
 endfacet
facet normal -0.157934949 0.060260091 -0.985609114
  outer loop
   vertex 19.8778191 0 0.0451200008
   vertex 19.5126209 0 0.103639998
   vertex 24.9083652 13 0.0338400006
  endloop
 endfacet
facet normal 0 1 0
  outer loop
   vertex 19.8778191 0 0.0451200008
   vertex 19.8759403 0 -0.0396800004
   vertex 19.5126209 0 0.103639998
  endloop
 endfacet
facet normal 0 1 0
  outer loop
   vertex 19.8778191 0 0.0451200008
   vertex 19.9994392 0 -0.0252
   vertex 19.8759403 0 -0.0396800004
  endloop
 endfacet
facet normal -0.154089183 0.0587435104 -0.986309171
  outer loop
   vertex 19.5126209 0 0.103639998
   vertex 18.9138794 0 0.197180003
   vertex 24.1854095 13 0.147884995
  endloop
 endfacet
facet normal 0 1 0
  outer loop
   vertex 19.5126209 0 0.103639998
   vertex 18.9062405 0 -0.149039999
   vertex 18.9138794 0 0.197180003
  endloop
 endfacet
facet normal 0 1 0
  outer loop
   vertex 19.5126209 0 0.103639998
   vertex 19.5085201 0 -0.0820199996
   vertex 18.9062405 0 -0.149039999
  endloop
 endfacet
facet normal 0 1 0
  outer loop
   vertex 19.5126209 0 0.103639998
   vertex 19.8759403 0 -0.0396800004
   vertex 19.5085201 0 -0.0820199996
  endloop
 endfacet
facet normal -0.157934949 0.060260091 -0.985609114
  outer loop
   vertex 19.5126209 0 0.103639998
   vertex 24.6344643 13 0.07773
   vertex 24.9083652 13 0.0338400006
  endloop
 endfacet
facet normal -0.154089183 0.0587435104 -0.986309171
  outer loop
   vertex 19.5126209 0 0.103639998
   vertex 24.1854095 13 0.147884995
   vertex 24.6344643 13 0.07773
  endloop
 endfacet
facet normal -0.148794726 0.0565930419 -0.987247348
  outer loop
   vertex 18.9138794 0 0.197180003
   vertex 18.0963192 0 0.3204
   vertex 24.1854095 13 0.147884995
  endloop
 endfacet
facet normal 0 1 0
  outer loop
   vertex 18.9138794 0 0.197180003
   vertex 18.0840206 0 -0.236039996
   vertex 18.0963192 0 0.3204
  endloop
 endfacet
facet normal 0 1 0
  outer loop
   vertex 18.9138794 0 0.197180003
   vertex 18.9062405 0 -0.149039999
   vertex 18.0840206 0 -0.236039996
  endloop
 endfacet
facet normal -0.142286181 0.0538446233 -0.988359928
  outer loop
   vertex 18.0963192 0 0.3204
   vertex 17.0799408 0 0.466720015
   vertex 22.8099556 13 0.350039989
  endloop
 endfacet
facet normal 0 1 0
  outer loop
   vertex 18.0963192 0 0.3204
   vertex 18.0840206 0 -0.236039996
   vertex 17.0799408 0 0.466720015
  endloop
 endfacet
facet normal -0.148794726 0.0565930419 -0.987247348
  outer loop
   vertex 18.0963192 0 0.3204
   vertex 23.5722408 13 0.2403
   vertex 24.1854095 13 0.147884995
  endloop
 endfacet
facet normal -0.142286181 0.0538446233 -0.988359928
  outer loop
   vertex 18.0963192 0 0.3204
   vertex 22.8099556 13 0.350039989
   vertex 23.5722408 13 0.2403
  endloop
 endfacet
facet normal -0.134923875 0.0505887344 -0.989563704
  outer loop
   vertex 17.0799408 0 0.466720015
   vertex 15.88974 0 0.629000008
   vertex 22.8099556 13 0.350039989
  endloop
 endfacet
facet normal 0 1 0
  outer loop
   vertex 17.0799408 0 0.466720015
   vertex 17.0621796 0 -0.337359995
   vertex 15.88974 0 0.629000008
  endloop
 endfacet
facet normal 0 1 0
  outer loop
   vertex 17.0799408 0 0.466720015
   vertex 18.0840206 0 -0.236039996
   vertex 17.0621796 0 -0.337359995
  endloop
 endfacet
facet normal -0.126679599 0.0467507467 -0.990841389
  outer loop
   vertex 15.88974 0 0.629000008
   vertex 14.5549002 0 0.799660027
   vertex 20.9161758 13 0.599744976
  endloop
 endfacet
facet normal 0 1 0
  outer loop
   vertex 15.88974 0 0.629000008
   vertex 14.5249004 0 -0.558499992
   vertex 14.5549002 0 0.799660027
  endloop
 endfacet
facet normal 0 1 0
  outer loop
   vertex 15.88974 0 0.629000008
   vertex 15.8659801 0 -0.446940005
   vertex 14.5249004 0 -0.558499992
  endloop
 endfacet
facet normal 0 1 0
  outer loop
   vertex 15.88974 0 0.629000008
   vertex 17.0621796 0 -0.337359995
   vertex 15.8659801 0 -0.446940005
  endloop
 endfacet
facet normal -0.134923875 0.0505887344 -0.989563704
  outer loop
   vertex 15.88974 0 0.629000008
   vertex 21.917305 13 0.471749991
   vertex 22.8099556 13 0.350039989
  endloop
 endfacet
facet normal -0.126679599 0.0467507467 -0.990841389
  outer loop
   vertex 15.88974 0 0.629000008
   vertex 20.9161758 13 0.599744976
   vertex 21.917305 13 0.471749991
  endloop
 endfacet
facet normal -0.117335849 0.042157732 -0.992197096
  outer loop
   vertex 14.5549002 0 0.799660027
   vertex 13.1082401 0 0.97074002
   vertex 20.9161758 13 0.599744976
  endloop
 endfacet
facet normal 0 1 0
  outer loop
   vertex 14.5549002 0 0.799660027
   vertex 14.5249004 0 -0.558499992
   vertex 13.1082401 0 0.97074002
  endloop
 endfacet
facet normal -0.106335655 0.0364416391 -0.993662298
  outer loop
   vertex 13.1082401 0 0.97074002
   vertex 11.5852604 0 1.13372004
   vertex 18.6889458 13 0.85029
  endloop
 endfacet
facet normal 0 1 0
  outer loop
   vertex 13.1082401 0 0.97074002
   vertex 11.5434198 0 -0.761139989
   vertex 11.5852604 0 1.13372004
  endloop
 endfacet
facet normal 0 1 0
  outer loop
   vertex 13.1082401 0 0.97074002
   vertex 13.0720997 0 -0.665560007
   vertex 11.5434198 0 -0.761139989
  endloop
 endfacet
facet normal 0 1 0
  outer loop
   vertex 13.1082401 0 0.97074002
   vertex 14.5249004 0 -0.558499992
   vertex 13.0720997 0 -0.665560007
  endloop
 endfacet
facet normal -0.117335849 0.042157732 -0.992197096
  outer loop
   vertex 13.1082401 0 0.97074002
   vertex 19.8311806 13 0.728055
   vertex 20.9161758 13 0.599744976
  endloop
 endfacet
facet normal -0.106335655 0.0364416391 -0.993662298
  outer loop
   vertex 13.1082401 0 0.97074002
   vertex 18.6889458 13 0.85029
   vertex 19.8311806 13 0.728055
  endloop
 endfacet
facet normal -0.0928173736 0.0290199053 -0.995260179
  outer loop
   vertex 11.5852604 0 1.13372004
   vertex 10.0233803 0 1.27937996
   vertex 18.6889458 13 0.85029
  endloop
 endfacet
facet normal 0 1 0
  outer loop
   vertex 11.5852604 0 1.13372004
   vertex 9.97661972 0 -0.837700009
   vertex 10.0233803 0 1.27937996
  endloop
 endfacet
facet normal 0 1 0
  outer loop
   vertex 11.5852604 0 1.13372004
   vertex 11.5434198 0 -0.761139989
   vertex 9.97661972 0 -0.837700009
  endloop
 endfacet
facet normal -0.0757241547 0.0191246588 -0.996945381
  outer loop
   vertex 10.0233803 0 1.27937996
   vertex 8.46090031 0 1.39805996
   vertex 17.5175343 13 0.959535003
  endloop
 endfacet
facet normal 0 1 0
  outer loop
   vertex 10.0233803 0 1.27937996
   vertex 9.97661972 0 -0.837700009
   vertex 8.46090031 0 1.39805996
  endloop
 endfacet
facet normal -0.0928173736 0.0290199053 -0.995260179
  outer loop
   vertex 10.0233803 0 1.27937996
   vertex 17.5175343 13 0.959535003
   vertex 18.6889458 13 0.85029
  endloop
 endfacet
facet normal -0.0538441055 0.00581127591 -0.998532414
  outer loop
   vertex 8.46090031 0 1.39805996
   vertex 6.93614006 0 1.48028004
   vertex 16.3456745 13 1.048545
  endloop
 endfacet
facet normal 0 1 0
  outer loop
   vertex 8.46090031 0 1.39805996
   vertex 8.41042042 0 -0.887300014
   vertex 6.93614006 0 1.48028004
  endloop
 endfacet
facet normal 0 1 0
  outer loop
   vertex 8.46090031 0 1.39805996
   vertex 9.97661972 0 -0.837700009
   vertex 8.41042042 0 -0.887300014
  endloop
 endfacet
facet normal -0.0757241547 0.0191246588 -0.996945381
  outer loop
   vertex 8.46090031 0 1.39805996
   vertex 16.3456745 13 1.048545
   vertex 17.5175343 13 0.959535003
  endloop
 endfacet
facet normal -0.025844546 -0.0120222708 -0.999593675
  outer loop
   vertex 6.93614006 0 1.48028004
   vertex 5.48651981 0 1.51776004
   vertex 14.1148901 13 1.13831997
  endloop
 endfacet
facet normal 0 1 0
  outer loop
   vertex 6.93614006 0 1.48028004
   vertex 6.88352013 0 -0.902119994
   vertex 5.48651981 0 1.51776004
  endloop
 endfacet
facet normal 0 1 0
  outer loop
   vertex 6.93614006 0 1.48028004
   vertex 8.41042042 0 -0.887300014
   vertex 6.88352013 0 -0.902119994
  endloop
 endfacet
facet normal -0.0538441055 0.00581127591 -0.998532414
  outer loop
   vertex 6.93614006 0 1.48028004
   vertex 15.2021046 13 1.11020994
   vertex 16.3456745 13 1.048545
  endloop
 endfacet
facet normal -0.025844546 -0.0120222708 -0.999593675
  outer loop
   vertex 6.93614006 0 1.48028004
   vertex 14.1148901 13 1.13831997
   vertex 15.2021046 13 1.11020994
  endloop
 endfacet
facet normal 0.00979252998 -0.0356672257 -0.999315739
  outer loop
   vertex 5.48651981 0 1.51776004
   vertex 4.14764023 0 1.50463998
   vertex 13.1107302 13 1.12847996
  endloop
 endfacet
facet normal 0 1 0
  outer loop
   vertex 5.48651981 0 1.51776004
   vertex 5.43366003 0 -0.875580013
   vertex 4.14764023 0 1.50463998
  endloop
 endfacet
facet normal 0 1 0
  outer loop
   vertex 5.48651981 0 1.51776004
   vertex 6.88352013 0 -0.902119994
   vertex 5.43366003 0 -0.875580013
  endloop
 endfacet
facet normal 0.00979252998 -0.0356672257 -0.999315739
  outer loop
   vertex 5.48651981 0 1.51776004
   vertex 13.1107302 13 1.12847996
   vertex 14.1148901 13 1.13831997
  endloop
 endfacet
facet normal 0.0614025034 -0.0711424202 -0.995574474
  outer loop
   vertex 4.14764023 0 1.50463998
   vertex 2.92576003 0 1.42928004
   vertex 12.1943197 13 1.07195997
  endloop
 endfacet
facet normal 0 1 0
  outer loop
   vertex 4.14764023 0 1.50463998
   vertex 2.93210006 0 -0.69404
   vertex 2.92576003 0 1.42928004
  endloop
 endfacet
facet normal 0 1 0
  outer loop
   vertex 4.14764023 0 1.50463998
   vertex 4.09666014 0 -0.803359985
   vertex 2.93210006 0 -0.69404
  endloop
 endfacet
facet normal 0 1 0
  outer loop
   vertex 4.14764023 0 1.50463998
   vertex 5.43366003 0 -0.875580013
   vertex 4.09666014 0 -0.803359985
  endloop
 endfacet
facet normal 0.0614025034 -0.0711424202 -0.995574474
  outer loop
   vertex 4.14764023 0 1.50463998
   vertex 12.1943197 13 1.07195997
   vertex 13.1107302 13 1.12847996
  endloop
 endfacet
facet normal 0.159463704 -0.140550241 -0.977147341
  outer loop
   vertex 2.92576003 0 1.42928004
   vertex 1.84617996 0 1.25310004
   vertex 12.1943197 13 1.07195997
  endloop
 endfacet
facet normal 0 1 0
  outer loop
   vertex 2.92576003 0 1.42928004
   vertex 1.97347999 0 -0.58446002
   vertex 1.84617996 0 1.25310004
  endloop
 endfacet
facet normal 0 1 0
  outer loop
   vertex 2.92576003 0 1.42928004
   vertex 2.93210006 0 -0.69404
   vertex 1.97347999 0 -0.58446002
  endloop
 endfacet
facet normal 0.297238797 -0.240360156 -0.924054146
  outer loop
   vertex 1.84617996 0 1.25310004
   vertex 0.97864002 0 0.974039972
   vertex 11.384635 13 0.939824998
  endloop
 endfacet
facet normal 0 1 0
  outer loop
   vertex 1.84617996 0 1.25310004
   vertex 1.20122004 0 -0.483720005
   vertex 0.97864002 0 0.974039972
  endloop
 endfacet
facet normal 0 1 0
  outer loop
   vertex 1.84617996 0 1.25310004
   vertex 1.97347999 0 -0.58446002
   vertex 1.20122004 0 -0.483720005
  endloop
 endfacet
facet normal 0.159463704 -0.140550241 -0.977147341
  outer loop
   vertex 1.84617996 0 1.25310004
   vertex 11.384635 13 0.939824998
   vertex 12.1943197 13 1.07195997
  endloop
 endfacet
facet normal 0.455859691 -0.357351273 -0.815163791
  outer loop
   vertex 0.97864002 0 0.974039972
   vertex 0.372979999 0 0.635339975
   vertex 10.2797346 13 0.476505011
  endloop
 endfacet
facet normal 0 1 0
  outer loop
   vertex 0.97864002 0 0.974039972
   vertex 0.60589999 0 -0.373860002
   vertex 0.372979999 0 0.635339975
  endloop
 endfacet
facet normal 0 1 0
  outer loop
   vertex 0.97864002 0 0.974039972
   vertex 1.20122004 0 -0.483720005
   vertex 0.60589999 0 -0.373860002
  endloop
 endfacet
facet normal 0.297238797 -0.240360156 -0.924054146
  outer loop
   vertex 0.97864002 0 0.974039972
   vertex 10.7339802 13 0.730530024
   vertex 11.384635 13 0.939824998
  endloop
 endfacet
facet normal 0.455859691 -0.357351273 -0.815163791
  outer loop
   vertex 0.97864002 0 0.974039972
   vertex 10.2797346 13 0.476505011
   vertex 10.7339802 13 0.730530024
  endloop
 endfacet
facet normal 0.631131768 -0.488322556 -0.602672219
  outer loop
   vertex 0.372979999 0 0.635339975
   vertex 0.0489800014 0 0.296039999
   vertex 10.0367346 13 0.222029999
  endloop
 endfacet
facet normal 0 1 0
  outer loop
   vertex 0.372979999 0 0.635339975
   vertex 0.197260007 0 -0.223340005
   vertex 0.0489800014 0 0.296039999
  endloop
 endfacet
facet normal 0 1 0
  outer loop
   vertex 0.372979999 0 0.635339975
   vertex 0.60589999 0 -0.373860002
   vertex 0.197260007 0 -0.223340005
  endloop
 endfacet
facet normal 0.631131768 -0.488322556 -0.602672219
  outer loop
   vertex 0.372979999 0 0.635339975
   vertex 10.0367346 13 0.222029999
   vertex 10.2797346 13 0.476505011
  endloop
 endfacet
facet normal 0.78589499 -0.604534626 -0.130026802
  outer loop
   vertex 0.0489800014 0 0.296039999
   vertex 0 0 0
   vertex 10 13 0
  endloop
 endfacet
facet normal 0 1 0
  outer loop
   vertex 0.0489800014 0 0.296039999
   vertex 0.197260007 0 -0.223340005
   vertex 0 0 0
  endloop
 endfacet
facet normal 0.78589499 -0.604534626 -0.130026802
  outer loop
   vertex 0.0489800014 0 0.296039999
   vertex 10 13 0
   vertex 10.0367346 13 0.222029999
  endloop
 endfacet
facet normal 0.649322391 -0.499478757 0.573499262
  outer loop
   vertex 0 0 0
   vertex 0.197260007 0 -0.223340005
   vertex 10 13 0
  endloop
 endfacet
facet normal 0.333809912 -0.259402901 0.906245589
  outer loop
   vertex 0.197260007 0 -0.223340005
   vertex 0.60589999 0 -0.373860002
   vertex 10.1479454 13 -0.167504996
  endloop
 endfacet
facet normal 0.649322391 -0.499478757 0.573499262
  outer loop
   vertex 0.197260007 0 -0.223340005
   vertex 10.1479454 13 -0.167504996
   vertex 10 13 0
  endloop
 endfacet
facet normal 0.179608449 -0.143065065 0.973279595
  outer loop
   vertex 0.60589999 0 -0.373860002
   vertex 1.20122004 0 -0.483720005
   vertex 10.9009151 13 -0.362789989
  endloop
 endfacet
facet normal 0.333809912 -0.259402901 0.906245589
  outer loop
   vertex 0.60589999 0 -0.373860002
   vertex 10.4544249 13 -0.280395001
   vertex 10.1479454 13 -0.167504996
  endloop
 endfacet
facet normal 0.179608449 -0.143065065 0.973279595
  outer loop
   vertex 0.60589999 0 -0.373860002
   vertex 10.9009151 13 -0.362789989
   vertex 10.4544249 13 -0.280395001
  endloop
 endfacet
facet normal 0.128635257 -0.105151691 0.986101449
  outer loop
   vertex 1.20122004 0 -0.483720005
   vertex 1.97347999 0 -0.58446002
   vertex 10.9009151 13 -0.362789989
  endloop
 endfacet
facet normal 0.113069803 -0.0938032493 0.989149213
  outer loop
   vertex 1.97347999 0 -0.58446002
   vertex 2.93210006 0 -0.69404
   vertex 11.4801102 13 -0.438344985
  endloop
 endfacet
facet normal 0.128635257 -0.105151691 0.986101449
  outer loop
   vertex 1.97347999 0 -0.58446002
   vertex 11.4801102 13 -0.438344985
   vertex 10.9009151 13 -0.362789989
  endloop
 endfacet
facet normal 0.0931644812 -0.0796580315 0.992459059
  outer loop
   vertex 2.93210006 0 -0.69404
   vertex 4.09666014 0 -0.803359985
   vertex 13.0724955 13 -0.602519989
  endloop
 endfacet
facet normal 0.113069803 -0.0938032493 0.989149213
  outer loop
   vertex 2.93210006 0 -0.69404
   vertex 12.1990747 13 -0.520529985
   vertex 11.4801102 13 -0.438344985
  endloop
 endfacet
facet normal 0.0931644812 -0.0796580315 0.992459059
  outer loop
   vertex 2.93210006 0 -0.69404
   vertex 13.0724955 13 -0.602519989
   vertex 12.1990747 13 -0.520529985
  endloop
 endfacet
facet normal 0.0538631678 -0.0525951535 0.997162223
  outer loop
   vertex 4.09666014 0 -0.803359985
   vertex 5.43366003 0 -0.875580013
   vertex 13.0724955 13 -0.602519989
  endloop
 endfacet
facet normal 0.0182944573 -0.0289891902 0.999412298
  outer loop
   vertex 5.43366003 0 -0.875580013
   vertex 6.88352013 0 -0.902119994
   vertex 15.1626396 13 -0.676590025
  endloop
 endfacet
facet normal 0.0538631678 -0.0525951535 0.997162223
  outer loop
   vertex 5.43366003 0 -0.875580013
   vertex 14.0752449 13 -0.656684995
   vertex 13.0724955 13 -0.602519989
  endloop
 endfacet
facet normal 0.0182944573 -0.0289891902 0.999412298
  outer loop
   vertex 5.43366003 0 -0.875580013
   vertex 15.1626396 13 -0.676590025
   vertex 14.0752449 13 -0.656684995
  endloop
 endfacet
facet normal -0.00970487762 -0.0111659588 0.999890566
  outer loop
   vertex 6.88352013 0 -0.902119994
   vertex 8.41042042 0 -0.887300014
   vertex 16.3078156 13 -0.665475011
  endloop
 endfacet
facet normal -0.00970487762 -0.0111659588 0.999890566
  outer loop
   vertex 6.88352013 0 -0.902119994
   vertex 16.3078156 13 -0.665475011
   vertex 15.1626396 13 -0.676590025
  endloop
 endfacet
facet normal -0.0316530652 0.00217410969 0.999496579
  outer loop
   vertex 8.41042042 0 -0.887300014
   vertex 9.97661972 0 -0.837700009
   vertex 17.4824657 13 -0.628274977
  endloop
 endfacet
facet normal -0.0316530652 0.00217410969 0.999496579
  outer loop
   vertex 8.41042042 0 -0.887300014
   vertex 17.4824657 13 -0.628274977
   vertex 16.3078156 13 -0.665475011
  endloop
 endfacet
facet normal -0.0488021299 0.0120877745 0.998735309
  outer loop
   vertex 9.97661972 0 -0.837700009
   vertex 11.5434198 0 -0.761139989
   vertex 17.4824657 13 -0.628274977
  endloop
 endfacet
facet normal -0.0623907633 0.0195368491 0.997860551
  outer loop
   vertex 11.5434198 0 -0.761139989
   vertex 13.0720997 0 -0.665560007
   vertex 18.6575642 13 -0.570855021
  endloop
 endfacet
facet normal -0.0488021299 0.0120877745 0.998735309
  outer loop
   vertex 11.5434198 0 -0.761139989
   vertex 18.6575642 13 -0.570855021
   vertex 17.4824657 13 -0.628274977
  endloop
 endfacet
facet normal -0.0734694004 0.0252851676 0.996976912
  outer loop
   vertex 13.0720997 0 -0.665560007
   vertex 14.5249004 0 -0.558499992
   vertex 20.8936749 13 -0.418875009
  endloop
 endfacet
facet normal -0.0623907633 0.0195368491 0.997860551
  outer loop
   vertex 13.0720997 0 -0.665560007
   vertex 19.8040752 13 -0.499170005
   vertex 18.6575642 13 -0.570855021
  endloop
 endfacet
facet normal -0.0734694004 0.0252851676 0.996976912
  outer loop
   vertex 13.0720997 0 -0.665560007
   vertex 20.8936749 13 -0.418875009
   vertex 19.8040752 13 -0.499170005
  endloop
 endfacet
facet normal -0.0828632861 0.0298965722 0.996112406
  outer loop
   vertex 14.5249004 0 -0.558499992
   vertex 15.8659801 0 -0.446940005
   vertex 20.8936749 13 -0.418875009
  endloop
 endfacet
facet normal -0.0911727846 0.0337604433 0.995262682
  outer loop
   vertex 15.8659801 0 -0.446940005
   vertex 17.0621796 0 -0.337359995
   vertex 22.7966347 13 -0.253019989
  endloop
 endfacet
facet normal -0.0828632861 0.0298965722 0.996112406
  outer loop
   vertex 15.8659801 0 -0.446940005
   vertex 21.8994846 13 -0.335204989
   vertex 20.8936749 13 -0.418875009
  endloop
 endfacet
facet normal -0.0911727846 0.0337604433 0.995262682
  outer loop
   vertex 15.8659801 0 -0.446940005
   vertex 22.7966347 13 -0.253019989
   vertex 21.8994846 13 -0.335204989
  endloop
 endfacet
facet normal -0.0986028835 0.037043307 0.994437158
  outer loop
   vertex 17.0621796 0 -0.337359995
   vertex 18.0840206 0 -0.236039996
   vertex 22.7966347 13 -0.253019989
  endloop
 endfacet
facet normal -0.105140314 0.0398021042 0.993660569
  outer loop
   vertex 18.0840206 0 -0.236039996
   vertex 18.9062405 0 -0.149039999
   vertex 24.1796799 13 -0.111780003
  endloop
 endfacet
facet normal -0.0986028835 0.037043307 0.994437158
  outer loop
   vertex 18.0840206 0 -0.236039996
   vertex 23.563015 13 -0.177029997
   vertex 22.7966347 13 -0.253019989
  endloop
 endfacet
facet normal -0.105140314 0.0398021042 0.993660569
  outer loop
   vertex 18.0840206 0 -0.236039996
   vertex 24.1796799 13 -0.111780003
   vertex 23.563015 13 -0.177029997
  endloop
 endfacet
facet normal -0.11049705 0.0419769809 0.9929896
  outer loop
   vertex 18.9062405 0 -0.149039999
   vertex 19.5085201 0 -0.0820199996
   vertex 24.1796799 13 -0.111780003
  endloop
 endfacet
facet normal -0.114369996 0.0435039774 0.992485225
  outer loop
   vertex 19.5085201 0 -0.0820199996
   vertex 19.8759403 0 -0.0396800004
   vertex 24.9069557 13 -0.0297599994
  endloop
 endfacet
facet normal -0.11049705 0.0419769809 0.9929896
  outer loop
   vertex 19.5085201 0 -0.0820199996
   vertex 24.6313896 13 -0.0615149997
   vertex 24.1796799 13 -0.111780003
  endloop
 endfacet
facet normal -0.114369996 0.0435039774 0.992485225
  outer loop
   vertex 19.5085201 0 -0.0820199996
   vertex 24.9069557 13 -0.0297599994
   vertex 24.6313896 13 -0.0615149997
  endloop
 endfacet
facet normal -0.116335154 0.0442646965 0.992223144
  outer loop
   vertex 19.8759403 0 -0.0396800004
   vertex 19.9994392 0 -0.0252
   vertex 24.9995804 13 -0.0188999996
  endloop
 endfacet
facet normal -0.116335154 0.0442646965 0.992223144
  outer loop
   vertex 19.8759403 0 -0.0396800004
   vertex 24.9995804 13 -0.0188999996
   vertex 24.9069557 13 -0.0297599994
  endloop
 endfacet
facet normal -0 -1 0
  outer loop
   vertex 25.0004196 13 0.0188999996
   vertex 24.9083652 13 0.0338400006
   vertex 24.9995804 13 -0.0188999996
  endloop
 endfacet
facet normal -0 -1 0
  outer loop
   vertex 24.9083652 13 0.0338400006
   vertex 24.6344643 13 0.07773
   vertex 24.9069557 13 -0.0297599994
  endloop
 endfacet
facet normal 0 -1 -0
  outer loop
   vertex 24.9083652 13 0.0338400006
   vertex 24.9069557 13 -0.0297599994
   vertex 24.9995804 13 -0.0188999996
  endloop
 endfacet
facet normal -0 -1 0
  outer loop
   vertex 24.6344643 13 0.07773
   vertex 24.1854095 13 0.147884995
   vertex 24.1796799 13 -0.111780003
  endloop
 endfacet
facet normal 0 -1 0
  outer loop
   vertex 24.6344643 13 0.07773
   vertex 24.1796799 13 -0.111780003
   vertex 24.6313896 13 -0.0615149997
  endloop
 endfacet
facet normal 0 -1 -0
  outer loop
   vertex 24.6344643 13 0.07773
   vertex 24.6313896 13 -0.0615149997
   vertex 24.9069557 13 -0.0297599994
  endloop
 endfacet
facet normal -0 -1 0
  outer loop
   vertex 24.1854095 13 0.147884995
   vertex 23.5722408 13 0.2403
   vertex 23.563015 13 -0.177029997
  endloop
 endfacet
facet normal 0 -1 0
  outer loop
   vertex 24.1854095 13 0.147884995
   vertex 23.563015 13 -0.177029997
   vertex 24.1796799 13 -0.111780003
  endloop
 endfacet
facet normal -0 -1 0
  outer loop
   vertex 23.5722408 13 0.2403
   vertex 22.8099556 13 0.350039989
   vertex 23.563015 13 -0.177029997
  endloop
 endfacet
facet normal -0 -1 0
  outer loop
   vertex 22.8099556 13 0.350039989
   vertex 21.917305 13 0.471749991
   vertex 22.7966347 13 -0.253019989
  endloop
 endfacet
facet normal 0 -1 -0
  outer loop
   vertex 22.8099556 13 0.350039989
   vertex 22.7966347 13 -0.253019989
   vertex 23.563015 13 -0.177029997
  endloop
 endfacet
facet normal -0 -1 0
  outer loop
   vertex 21.917305 13 0.471749991
   vertex 20.9161758 13 0.599744976
   vertex 20.8936749 13 -0.418875009
  endloop
 endfacet
facet normal 0 -1 0
  outer loop
   vertex 21.917305 13 0.471749991
   vertex 20.8936749 13 -0.418875009
   vertex 21.8994846 13 -0.335204989
  endloop
 endfacet
facet normal 0 -1 -0
  outer loop
   vertex 21.917305 13 0.471749991
   vertex 21.8994846 13 -0.335204989
   vertex 22.7966347 13 -0.253019989
  endloop
 endfacet
facet normal -0 -1 0
  outer loop
   vertex 20.9161758 13 0.599744976
   vertex 19.8311806 13 0.728055
   vertex 20.8936749 13 -0.418875009
  endloop
 endfacet
facet normal -0 -1 0
  outer loop
   vertex 19.8311806 13 0.728055
   vertex 18.6889458 13 0.85029
   vertex 18.6575642 13 -0.570855021
  endloop
 endfacet
facet normal 0 -1 0
  outer loop
   vertex 19.8311806 13 0.728055
   vertex 18.6575642 13 -0.570855021
   vertex 19.8040752 13 -0.499170005
  endloop
 endfacet
facet normal 0 -1 -0
  outer loop
   vertex 19.8311806 13 0.728055
   vertex 19.8040752 13 -0.499170005
   vertex 20.8936749 13 -0.418875009
  endloop
 endfacet
facet normal -0 -1 0
  outer loop
   vertex 18.6889458 13 0.85029
   vertex 17.5175343 13 0.959535003
   vertex 17.4824657 13 -0.628274977
  endloop
 endfacet
facet normal 0 -1 0
  outer loop
   vertex 18.6889458 13 0.85029
   vertex 17.4824657 13 -0.628274977
   vertex 18.6575642 13 -0.570855021
  endloop
 endfacet
facet normal -0 -1 0
  outer loop
   vertex 17.5175343 13 0.959535003
   vertex 16.3456745 13 1.048545
   vertex 17.4824657 13 -0.628274977
  endloop
 endfacet
facet normal -0 -1 0
  outer loop
   vertex 16.3456745 13 1.048545
   vertex 15.2021046 13 1.11020994
   vertex 16.3078156 13 -0.665475011
  endloop
 endfacet
facet normal 0 -1 -0
  outer loop
   vertex 16.3456745 13 1.048545
   vertex 16.3078156 13 -0.665475011
   vertex 17.4824657 13 -0.628274977
  endloop
 endfacet
facet normal -0 -1 0
  outer loop
   vertex 15.2021046 13 1.11020994
   vertex 14.1148901 13 1.13831997
   vertex 15.1626396 13 -0.676590025
  endloop
 endfacet
facet normal 0 -1 -0
  outer loop
   vertex 15.2021046 13 1.11020994
   vertex 15.1626396 13 -0.676590025
   vertex 16.3078156 13 -0.665475011
  endloop
 endfacet
facet normal 0 -1 0
  outer loop
   vertex 14.1148901 13 1.13831997
   vertex 13.1107302 13 1.12847996
   vertex 14.0752449 13 -0.656684995
  endloop
 endfacet
facet normal 0 -1 -0
  outer loop
   vertex 14.1148901 13 1.13831997
   vertex 14.0752449 13 -0.656684995
   vertex 15.1626396 13 -0.676590025
  endloop
 endfacet
facet normal 0 -1 0
  outer loop
   vertex 13.1107302 13 1.12847996
   vertex 12.1943197 13 1.07195997
   vertex 12.1990747 13 -0.520529985
  endloop
 endfacet
facet normal 0 -1 0
  outer loop
   vertex 13.1107302 13 1.12847996
   vertex 12.1990747 13 -0.520529985
   vertex 13.0724955 13 -0.602519989
  endloop
 endfacet
facet normal 0 -1 -0
  outer loop
   vertex 13.1107302 13 1.12847996
   vertex 13.0724955 13 -0.602519989
   vertex 14.0752449 13 -0.656684995
  endloop
 endfacet
facet normal 0 -1 0
  outer loop
   vertex 12.1943197 13 1.07195997
   vertex 11.384635 13 0.939824998
   vertex 11.4801102 13 -0.438344985
  endloop
 endfacet
facet normal 0 -1 -0
  outer loop
   vertex 12.1943197 13 1.07195997
   vertex 11.4801102 13 -0.438344985
   vertex 12.1990747 13 -0.520529985
  endloop
 endfacet
facet normal 0 -1 0
  outer loop
   vertex 11.384635 13 0.939824998
   vertex 10.7339802 13 0.730530024
   vertex 10.9009151 13 -0.362789989
  endloop
 endfacet
facet normal 0 -1 -0
  outer loop
   vertex 11.384635 13 0.939824998
   vertex 10.9009151 13 -0.362789989
   vertex 11.4801102 13 -0.438344985
  endloop
 endfacet
facet normal 0 -1 0
  outer loop
   vertex 10.7339802 13 0.730530024
   vertex 10.2797346 13 0.476505011
   vertex 10.4544249 13 -0.280395001
  endloop
 endfacet
facet normal 0 -1 -0
  outer loop
   vertex 10.7339802 13 0.730530024
   vertex 10.4544249 13 -0.280395001
   vertex 10.9009151 13 -0.362789989
  endloop
 endfacet
facet normal 0 -1 0
  outer loop
   vertex 10.2797346 13 0.476505011
   vertex 10.0367346 13 0.222029999
   vertex 10.1479454 13 -0.167504996
  endloop
 endfacet
facet normal 0 -1 -0
  outer loop
   vertex 10.2797346 13 0.476505011
   vertex 10.1479454 13 -0.167504996
   vertex 10.4544249 13 -0.280395001
  endloop
 endfacet
facet normal 0 -1 -0
  outer loop
   vertex 10.0367346 13 0.222029999
   vertex 10 13 0
   vertex 10.1479454 13 -0.167504996
  endloop
 endfacet
endsolid MATLAB_1
