solid MATLAB_1
facet normal -0.160053536 0.0424929485 -0.986193299
  outer loop
   vertex 24.7405643 10.0658989 0.0188999996
   vertex 24.6485081 10.0658989 0.0338400006
   vertex 32.7624168 39.9886398 0.00630550086
  endloop
 endfacet
facet normal 0 1 0
  outer loop
   vertex 24.7405643 10.0658989 0.0188999996
   vertex 24.7397232 10.0658989 -0.0188999996
   vertex 24.6485081 10.0658989 0.0338400006
  endloop
 endfacet
facet normal -0.965668201 0.258890718 0.0214592945
  outer loop
   vertex 24.7405643 10.0658989 0.0188999996
   vertex 32.7624168 39.9886398 0.00630550086
   vertex 24.7397232 10.0658989 -0.0188999996
  endloop
 endfacet
facet normal -0.158083141 0.0419604182 -0.98653388
  outer loop
   vertex 24.6485081 10.0658989 0.0338400006
   vertex 24.374609 10.0658989 0.07773
   vertex 32.6403275 39.9886398 0.0259326249
  endloop
 endfacet
facet normal 0 1 0
  outer loop
   vertex 24.6485081 10.0658989 0.0338400006
   vertex 24.6470985 10.0658989 -0.0297599994
   vertex 24.374609 10.0658989 0.07773
  endloop
 endfacet
facet normal 0 1 0
  outer loop
   vertex 24.6485081 10.0658989 0.0338400006
   vertex 24.7397232 10.0658989 -0.0188999996
   vertex 24.6470985 10.0658989 -0.0297599994
  endloop
 endfacet
facet normal -0.160053536 0.0424929485 -0.986193299
  outer loop
   vertex 24.6485081 10.0658989 0.0338400006
   vertex 32.7317047 39.9886398 0.0112898499
   vertex 32.7624168 39.9886398 0.00630550086
  endloop
 endfacet
facet normal -0.158083141 0.0419604182 -0.98653388
  outer loop
   vertex 24.6485081 10.0658989 0.0338400006
   vertex 32.6403275 39.9886398 0.0259326249
   vertex 32.7317047 39.9886398 0.0112898499
  endloop
 endfacet
facet normal -0.154226616 0.0408939794 -0.987188876
  outer loop
   vertex 24.374609 10.0658989 0.07773
   vertex 23.9255543 10.0658989 0.147884995
   vertex 32.6403275 39.9886398 0.0259326249
  endloop
 endfacet
facet normal 0 1 0
  outer loop
   vertex 24.374609 10.0658989 0.07773
   vertex 23.9198246 10.0658989 -0.111780003
   vertex 23.9255543 10.0658989 0.147884995
  endloop
 endfacet
facet normal 0 1 0
  outer loop
   vertex 24.374609 10.0658989 0.07773
   vertex 24.3715343 10.0658989 -0.0615149997
   vertex 23.9198246 10.0658989 -0.111780003
  endloop
 endfacet
facet normal 0 1 0
  outer loop
   vertex 24.374609 10.0658989 0.07773
   vertex 24.6470985 10.0658989 -0.0297599994
   vertex 24.3715343 10.0658989 -0.0615149997
  endloop
 endfacet
facet normal -0.148918033 0.0393715836 -0.988065422
  outer loop
   vertex 23.9255543 10.0658989 0.147884995
   vertex 23.3123837 10.0658989 0.2403
   vertex 32.2859421 39.9886398 0.0801699385
  endloop
 endfacet
facet normal 0 1 0
  outer loop
   vertex 23.9255543 10.0658989 0.147884995
   vertex 23.3031597 10.0658989 -0.177029997
   vertex 23.3123837 10.0658989 0.2403
  endloop
 endfacet
facet normal 0 1 0
  outer loop
   vertex 23.9255543 10.0658989 0.147884995
   vertex 23.9198246 10.0658989 -0.111780003
   vertex 23.3031597 10.0658989 -0.177029997
  endloop
 endfacet
facet normal -0.154226616 0.0408939794 -0.987188876
  outer loop
   vertex 23.9255543 10.0658989 0.147884995
   vertex 32.490509 39.9886398 0.0493380427
   vertex 32.6403275 39.9886398 0.0259326249
  endloop
 endfacet
facet normal -0.148918033 0.0393715836 -0.988065422
  outer loop
   vertex 23.9255543 10.0658989 0.147884995
   vertex 32.2859421 39.9886398 0.0801699385
   vertex 32.490509 39.9886398 0.0493380427
  endloop
 endfacet
facet normal -0.142393157 0.0374092795 -0.989103019
  outer loop
   vertex 23.3123837 10.0658989 0.2403
   vertex 22.5500984 10.0658989 0.350039989
   vertex 32.2859421 39.9886398 0.0801699385
  endloop
 endfacet
facet normal 0 1 0
  outer loop
   vertex 23.3123837 10.0658989 0.2403
   vertex 23.3031597 10.0658989 -0.177029997
   vertex 22.5500984 10.0658989 0.350039989
  endloop
 endfacet
facet normal -0.135013789 0.0350622721 -0.990223169
  outer loop
   vertex 22.5500984 10.0658989 0.350039989
   vertex 21.6574497 10.0658989 0.471749991
   vertex 32.0316238 39.9886398 0.116781883
  endloop
 endfacet
facet normal 0 1 0
  outer loop
   vertex 22.5500984 10.0658989 0.350039989
   vertex 22.5367794 10.0658989 -0.253019989
   vertex 21.6574497 10.0658989 0.471749991
  endloop
 endfacet
facet normal 0 1 0
  outer loop
   vertex 22.5500984 10.0658989 0.350039989
   vertex 23.3031597 10.0658989 -0.177029997
   vertex 22.5367794 10.0658989 -0.253019989
  endloop
 endfacet
facet normal -0.142393157 0.0374092795 -0.989103019
  outer loop
   vertex 22.5500984 10.0658989 0.350039989
   vertex 32.0316238 39.9886398 0.116781883
   vertex 32.2859421 39.9886398 0.0801699385
  endloop
 endfacet
facet normal -0.126752228 0.0322677568 -0.991409421
  outer loop
   vertex 21.6574497 10.0658989 0.471749991
   vertex 20.6563187 10.0658989 0.599744976
   vertex 31.7338161 39.9886398 0.157387301
  endloop
 endfacet
facet normal 0 1 0
  outer loop
   vertex 21.6574497 10.0658989 0.471749991
   vertex 20.6338196 10.0658989 -0.418875009
   vertex 20.6563187 10.0658989 0.599744976
  endloop
 endfacet
facet normal 0 1 0
  outer loop
   vertex 21.6574497 10.0658989 0.471749991
   vertex 21.6396294 10.0658989 -0.335204989
   vertex 20.6338196 10.0658989 -0.418875009
  endloop
 endfacet
facet normal 0 1 0
  outer loop
   vertex 21.6574497 10.0658989 0.471749991
   vertex 22.5367794 10.0658989 -0.253019989
   vertex 21.6396294 10.0658989 -0.335204989
  endloop
 endfacet
facet normal -0.135013789 0.0350622721 -0.990223169
  outer loop
   vertex 21.6574497 10.0658989 0.471749991
   vertex 31.7338161 39.9886398 0.157387301
   vertex 32.0316238 39.9886398 0.116781883
  endloop
 endfacet
facet normal -0.117391236 0.0288900025 -0.99266541
  outer loop
   vertex 20.6563187 10.0658989 0.599744976
   vertex 19.5713234 10.0658989 0.728055
   vertex 31.3998146 39.9886398 0.200089559
  endloop
 endfacet
facet normal 0 1 0
  outer loop
   vertex 20.6563187 10.0658989 0.599744976
   vertex 20.6338196 10.0658989 -0.418875009
   vertex 19.5713234 10.0658989 0.728055
  endloop
 endfacet
facet normal -0.126752228 0.0322677568 -0.991409421
  outer loop
   vertex 20.6563187 10.0658989 0.599744976
   vertex 31.3998146 39.9886398 0.200089559
   vertex 31.7338161 39.9886398 0.157387301
  endloop
 endfacet
facet normal -0.10637401 0.0246461872 -0.9940207
  outer loop
   vertex 19.5713234 10.0658989 0.728055
   vertex 18.4290886 10.0658989 0.85029
   vertex 30.6567554 39.9886398 0.283677489
  endloop
 endfacet
facet normal 0 1 0
  outer loop
   vertex 19.5713234 10.0658989 0.728055
   vertex 18.3977089 10.0658989 -0.570855021
   vertex 18.4290886 10.0658989 0.85029
  endloop
 endfacet
facet normal 0 1 0
  outer loop
   vertex 19.5713234 10.0658989 0.728055
   vertex 19.5442181 10.0658989 -0.499170005
   vertex 18.3977089 10.0658989 -0.570855021
  endloop
 endfacet
facet normal 0 1 0
  outer loop
   vertex 19.5713234 10.0658989 0.728055
   vertex 20.6338196 10.0658989 -0.418875009
   vertex 19.5442181 10.0658989 -0.499170005
  endloop
 endfacet
facet normal -0.117391236 0.0288900025 -0.99266541
  outer loop
   vertex 19.5713234 10.0658989 0.728055
   vertex 31.0378342 39.9886398 0.242896914
   vertex 31.3998146 39.9886398 0.200089559
  endloop
 endfacet
facet normal -0.10637401 0.0246461872 -0.9940207
  outer loop
   vertex 19.5713234 10.0658989 0.728055
   vertex 30.6567554 39.9886398 0.283677489
   vertex 31.0378342 39.9886398 0.242896914
  endloop
 endfacet
facet normal -0.0928395614 0.0190874748 -0.995498121
  outer loop
   vertex 18.4290886 10.0658989 0.85029
   vertex 17.257679 10.0658989 0.959535003
   vertex 30.6567554 39.9886398 0.283677489
  endloop
 endfacet
facet normal 0 1 0
  outer loop
   vertex 18.4290886 10.0658989 0.85029
   vertex 17.2226086 10.0658989 -0.628274977
   vertex 17.257679 10.0658989 0.959535003
  endloop
 endfacet
facet normal 0 1 0
  outer loop
   vertex 18.4290886 10.0658989 0.85029
   vertex 18.3977089 10.0658989 -0.570855021
   vertex 17.2226086 10.0658989 -0.628274977
  endloop
 endfacet
facet normal -0.0757328942 0.0116173364 -0.997060478
  outer loop
   vertex 17.257679 10.0658989 0.959535003
   vertex 16.0858192 10.0658989 1.048545
   vertex 29.8749847 39.9886398 0.349820197
  endloop
 endfacet
facet normal 0 1 0
  outer loop
   vertex 17.257679 10.0658989 0.959535003
   vertex 17.2226086 10.0658989 -0.628274977
   vertex 16.0858192 10.0658989 1.048545
  endloop
 endfacet
facet normal -0.0928395614 0.0190874748 -0.995498121
  outer loop
   vertex 17.257679 10.0658989 0.959535003
   vertex 30.2659454 39.9886398 0.320124269
   vertex 30.6567554 39.9886398 0.283677489
  endloop
 endfacet
facet normal -0.0757328942 0.0116173364 -0.997060478
  outer loop
   vertex 17.257679 10.0658989 0.959535003
   vertex 29.8749847 39.9886398 0.349820197
   vertex 30.2659454 39.9886398 0.320124269
  endloop
 endfacet
facet normal -0.0538449548 0.00149607204 -0.99854821
  outer loop
   vertex 16.0858192 10.0658989 1.048545
   vertex 14.9422483 10.0658989 1.11020994
   vertex 29.8749847 39.9886398 0.349820197
  endloop
 endfacet
facet normal 0 1 0
  outer loop
   vertex 16.0858192 10.0658989 1.048545
   vertex 16.0479584 10.0658989 -0.665475011
   vertex 14.9422483 10.0658989 1.11020994
  endloop
 endfacet
facet normal 0 1 0
  outer loop
   vertex 16.0858192 10.0658989 1.048545
   vertex 17.2226086 10.0658989 -0.628274977
   vertex 16.0479584 10.0658989 -0.665475011
  endloop
 endfacet
facet normal -0.0258445069 -0.0121461544 -0.999592185
  outer loop
   vertex 14.9422483 10.0658989 1.11020994
   vertex 13.8550339 10.0658989 1.13831997
   vertex 29.1307392 39.9886398 0.379771322
  endloop
 endfacet
facet normal 0 1 0
  outer loop
   vertex 14.9422483 10.0658989 1.11020994
   vertex 14.9027834 10.0658989 -0.676590025
   vertex 13.8550339 10.0658989 1.13831997
  endloop
 endfacet
facet normal 0 1 0
  outer loop
   vertex 14.9422483 10.0658989 1.11020994
   vertex 16.0479584 10.0658989 -0.665475011
   vertex 14.9027834 10.0658989 -0.676590025
  endloop
 endfacet
facet normal -0.0538449548 0.00149607204 -0.99854821
  outer loop
   vertex 14.9422483 10.0658989 1.11020994
   vertex 29.4934616 39.9886398 0.370393127
   vertex 29.8749847 39.9886398 0.349820197
  endloop
 endfacet
facet normal -0.0258445069 -0.0121461544 -0.999592185
  outer loop
   vertex 14.9422483 10.0658989 1.11020994
   vertex 29.1307392 39.9886398 0.379771322
   vertex 29.4934616 39.9886398 0.370393127
  endloop
 endfacet
facet normal 0.00979425479 -0.0303373709 -0.999491751
  outer loop
   vertex 13.8550339 10.0658989 1.13831997
   vertex 12.8508739 10.0658989 1.12847996
   vertex 29.1307392 39.9886398 0.379771322
  endloop
 endfacet
facet normal 0 1 0
  outer loop
   vertex 13.8550339 10.0658989 1.13831997
   vertex 13.8153887 10.0658989 -0.656684995
   vertex 12.8508739 10.0658989 1.12847996
  endloop
 endfacet
facet normal 0 1 0
  outer loop
   vertex 13.8550339 10.0658989 1.13831997
   vertex 14.9027834 10.0658989 -0.676590025
   vertex 13.8153887 10.0658989 -0.656684995
  endloop
 endfacet
facet normal 0.0614556074 -0.057789214 -0.996435463
  outer loop
   vertex 12.8508739 10.0658989 1.12847996
   vertex 11.9344635 10.0658989 1.07195997
   vertex 28.4899902 39.9886398 0.357632011
  endloop
 endfacet
facet normal 0 1 0
  outer loop
   vertex 12.8508739 10.0658989 1.12847996
   vertex 11.9392185 10.0658989 -0.520529985
   vertex 11.9344635 10.0658989 1.07195997
  endloop
 endfacet
facet normal 0 1 0
  outer loop
   vertex 12.8508739 10.0658989 1.12847996
   vertex 12.8126392 10.0658989 -0.602519989
   vertex 11.9392185 10.0658989 -0.520529985
  endloop
 endfacet
facet normal 0 1 0
  outer loop
   vertex 12.8508739 10.0658989 1.12847996
   vertex 13.8153887 10.0658989 -0.656684995
   vertex 12.8126392 10.0658989 -0.602519989
  endloop
 endfacet
facet normal 0.00979425479 -0.0303373709 -0.999491751
  outer loop
   vertex 12.8508739 10.0658989 1.12847996
   vertex 28.7957268 39.9886398 0.376488447
   vertex 29.1307392 39.9886398 0.379771322
  endloop
 endfacet
facet normal 0.0614556074 -0.057789214 -0.996435463
  outer loop
   vertex 12.8508739 10.0658989 1.12847996
   vertex 28.4899902 39.9886398 0.357632011
   vertex 28.7957268 39.9886398 0.376488447
  endloop
 endfacet
facet normal 0.160049751 -0.111964241 -0.980738521
  outer loop
   vertex 11.9344635 10.0658989 1.07195997
   vertex 11.1247787 10.0658989 0.939824998
   vertex 28.4899902 39.9886398 0.357632011
  endloop
 endfacet
facet normal 0 1 0
  outer loop
   vertex 11.9344635 10.0658989 1.07195997
   vertex 11.2202539 10.0658989 -0.438344985
   vertex 11.1247787 10.0658989 0.939824998
  endloop
 endfacet
facet normal 0 1 0
  outer loop
   vertex 11.9344635 10.0658989 1.07195997
   vertex 11.9392185 10.0658989 -0.520529985
   vertex 11.2202539 10.0658989 -0.438344985
  endloop
 endfacet
facet normal 0.300562382 -0.191269994 -0.934386432
  outer loop
   vertex 11.1247787 10.0658989 0.939824998
   vertex 10.474124 10.0658989 0.730530024
   vertex 28.2198601 39.9886398 0.313548535
  endloop
 endfacet
facet normal 0 1 0
  outer loop
   vertex 11.1247787 10.0658989 0.939824998
   vertex 10.6410589 10.0658989 -0.362789989
   vertex 10.474124 10.0658989 0.730530024
  endloop
 endfacet
facet normal 0 1 0
  outer loop
   vertex 11.1247787 10.0658989 0.939824998
   vertex 11.2202539 10.0658989 -0.438344985
   vertex 10.6410589 10.0658989 -0.362789989
  endloop
 endfacet
facet normal 0.160049751 -0.111964241 -0.980738521
  outer loop
   vertex 11.1247787 10.0658989 0.939824998
   vertex 28.2198601 39.9886398 0.313548535
   vertex 28.4899902 39.9886398 0.357632011
  endloop
 endfacet
facet normal 0.46748817 -0.287453353 -0.835957766
  outer loop
   vertex 10.474124 10.0658989 0.730530024
   vertex 10.0198784 10.0658989 0.476505011
   vertex 28.0027866 39.9886398 0.243722633
  endloop
 endfacet
facet normal 0 1 0
  outer loop
   vertex 10.474124 10.0658989 0.730530024
   vertex 10.1945686 10.0658989 -0.280395001
   vertex 10.0198784 10.0658989 0.476505011
  endloop
 endfacet
facet normal 0 1 0
  outer loop
   vertex 10.474124 10.0658989 0.730530024
   vertex 10.6410589 10.0658989 -0.362789989
   vertex 10.1945686 10.0658989 -0.280395001
  endloop
 endfacet
facet normal 0.300562382 -0.191269994 -0.934386432
  outer loop
   vertex 10.474124 10.0658989 0.730530024
   vertex 28.0027866 39.9886398 0.243722633
   vertex 28.2198601 39.9886398 0.313548535
  endloop
 endfacet
facet normal 0.662391126 -0.401439816 -0.632521987
  outer loop
   vertex 10.0198784 10.0658989 0.476505011
   vertex 9.77687836 10.0658989 0.222029999
   vertex 27.7701683 39.9886398 0.074074626
  endloop
 endfacet
facet normal 0 1 0
  outer loop
   vertex 10.0198784 10.0658989 0.476505011
   vertex 9.88808918 10.0658989 -0.167504996
   vertex 9.77687836 10.0658989 0.222029999
  endloop
 endfacet
facet normal 0 1 0
  outer loop
   vertex 10.0198784 10.0658989 0.476505011
   vertex 10.1945686 10.0658989 -0.280395001
   vertex 9.88808918 10.0658989 -0.167504996
  endloop
 endfacet
facet normal 0.46748817 -0.287453353 -0.835957766
  outer loop
   vertex 10.0198784 10.0658989 0.476505011
   vertex 27.8512383 39.9886398 0.158973694
   vertex 28.0027866 39.9886398 0.243722633
  endloop
 endfacet
facet normal 0.662391126 -0.401439816 -0.632521987
  outer loop
   vertex 10.0198784 10.0658989 0.476505011
   vertex 27.7701683 39.9886398 0.074074626
   vertex 27.8512383 39.9886398 0.158973694
  endloop
 endfacet
facet normal 0.848204136 -0.510740161 -0.140335903
  outer loop
   vertex 9.77687836 10.0658989 0.222029999
   vertex 9.74014378 10.0658989 0
   vertex 27.7701683 39.9886398 0.074074626
  endloop
 endfacet
facet normal 0 1 0
  outer loop
   vertex 9.77687836 10.0658989 0.222029999
   vertex 9.88808918 10.0658989 -0.167504996
   vertex 9.74014378 10.0658989 0
  endloop
 endfacet
facet normal 0.683160424 -0.411360234 0.603385985
  outer loop
   vertex 9.74014378 10.0658989 0
   vertex 9.88808918 10.0658989 -0.167504996
   vertex 27.8072701 39.9886398 -0.055883754
  endloop
 endfacet
facet normal 0.848204136 -0.510740161 -0.140335903
  outer loop
   vertex 9.74014378 10.0658989 0
   vertex 27.7579117 39.9886398 0
   vertex 27.7701683 39.9886398 0.074074626
  endloop
 endfacet
facet normal 0.683160424 -0.411360234 0.603385985
  outer loop
   vertex 9.74014378 10.0658989 0
   vertex 27.8072701 39.9886398 -0.055883754
   vertex 27.7579117 39.9886398 0
  endloop
 endfacet
facet normal 0.338230103 -0.205973849 0.918245733
  outer loop
   vertex 9.88808918 10.0658989 -0.167504996
   vertex 10.1945686 10.0658989 -0.280395001
   vertex 27.8072701 39.9886398 -0.055883754
  endloop
 endfacet
facet normal 0.180315912 -0.112852618 0.977113307
  outer loop
   vertex 10.1945686 10.0658989 -0.280395001
   vertex 10.6410589 10.0658989 -0.362789989
   vertex 27.9095192 39.9886398 -0.0935466141
  endloop
 endfacet
facet normal 0.338230103 -0.205973849 0.918245733
  outer loop
   vertex 10.1945686 10.0658989 -0.280395001
   vertex 27.9095192 39.9886398 -0.0935466141
   vertex 27.8072701 39.9886398 -0.055883754
  endloop
 endfacet
facet normal 0.128905848 -0.0830172375 0.988175809
  outer loop
   vertex 10.6410589 10.0658989 -0.362789989
   vertex 11.2202539 10.0658989 -0.438344985
   vertex 28.2517128 39.9886398 -0.146242589
  endloop
 endfacet
facet normal 0.180315912 -0.112852618 0.977113307
  outer loop
   vertex 10.6410589 10.0658989 -0.362789989
   vertex 28.0584793 39.9886398 -0.121035591
   vertex 27.9095192 39.9886398 -0.0935466141
  endloop
 endfacet
facet normal 0.128905848 -0.0830172375 0.988175809
  outer loop
   vertex 10.6410589 10.0658989 -0.362789989
   vertex 28.2517128 39.9886398 -0.146242589
   vertex 28.0584793 39.9886398 -0.121035591
  endloop
 endfacet
facet normal 0.113258027 -0.0741363689 0.990795851
  outer loop
   vertex 11.2202539 10.0658989 -0.438344985
   vertex 11.9392185 10.0658989 -0.520529985
   vertex 28.4915771 39.9886398 -0.1736615
  endloop
 endfacet
facet normal 0.113258027 -0.0741363689 0.990795851
  outer loop
   vertex 11.2202539 10.0658989 -0.438344985
   vertex 28.4915771 39.9886398 -0.1736615
   vertex 28.2517128 39.9886398 -0.146242589
  endloop
 endfacet
facet normal 0.0932751372 -0.0631153807 0.99363786
  outer loop
   vertex 11.9392185 10.0658989 -0.520529985
   vertex 12.8126392 10.0658989 -0.602519989
   vertex 28.4915771 39.9886398 -0.1736615
  endloop
 endfacet
facet normal 0.0538898893 -0.0421486571 0.997656941
  outer loop
   vertex 12.8126392 10.0658989 -0.602519989
   vertex 13.8153887 10.0658989 -0.656684995
   vertex 28.7829704 39.9886398 -0.201015368
  endloop
 endfacet
facet normal 0.0932751372 -0.0631153807 0.99363786
  outer loop
   vertex 12.8126392 10.0658989 -0.602519989
   vertex 28.7829704 39.9886398 -0.201015368
   vertex 28.4915771 39.9886398 -0.1736615
  endloop
 endfacet
facet normal 0.0182968881 -0.0239744447 0.999545097
  outer loop
   vertex 13.8153887 10.0658989 -0.656684995
   vertex 14.9027834 10.0658989 -0.676590025
   vertex 29.4802952 39.9886398 -0.225726932
  endloop
 endfacet
facet normal 0.0538898893 -0.0421486571 0.997656941
  outer loop
   vertex 13.8153887 10.0658989 -0.656684995
   vertex 29.1175137 39.9886398 -0.21908614
   vertex 28.7829704 39.9886398 -0.201015368
  endloop
 endfacet
facet normal 0.0182968881 -0.0239744447 0.999545097
  outer loop
   vertex 13.8153887 10.0658989 -0.656684995
   vertex 29.4802952 39.9886398 -0.225726932
   vertex 29.1175137 39.9886398 -0.21908614
  endloop
 endfacet
facet normal -0.00970496424 -0.0103380745 0.999899447
  outer loop
   vertex 14.9027834 10.0658989 -0.676590025
   vertex 16.0479584 10.0658989 -0.665475011
   vertex 29.8623524 39.9886398 -0.222018689
  endloop
 endfacet
facet normal -0.00970496424 -0.0103380745 0.999899447
  outer loop
   vertex 14.9027834 10.0658989 -0.676590025
   vertex 29.8623524 39.9886398 -0.222018689
   vertex 29.4802952 39.9886398 -0.225726932
  endloop
 endfacet
facet normal -0.0316531397 -0.000199351955 0.999498904
  outer loop
   vertex 16.0479584 10.0658989 -0.665475011
   vertex 17.2226086 10.0658989 -0.628274977
   vertex 29.8623524 39.9886398 -0.222018689
  endloop
 endfacet
facet normal -0.0488044024 0.00728021795 0.9987818
  outer loop
   vertex 17.2226086 10.0658989 -0.628274977
   vertex 18.3977089 10.0658989 -0.570855021
   vertex 30.646286 39.9886398 -0.19045116
  endloop
 endfacet
facet normal -0.0316531397 -0.000199351955 0.999498904
  outer loop
   vertex 17.2226086 10.0658989 -0.628274977
   vertex 30.2542458 39.9886398 -0.209607869
   vertex 29.8623524 39.9886398 -0.222018689
  endloop
 endfacet
facet normal -0.0488044024 0.00728021795 0.9987818
  outer loop
   vertex 17.2226086 10.0658989 -0.628274977
   vertex 30.646286 39.9886398 -0.19045116
   vertex 30.2542458 39.9886398 -0.209607869
  endloop
 endfacet
facet normal -0.0623975173 0.0128547642 0.997968614
  outer loop
   vertex 18.3977089 10.0658989 -0.570855021
   vertex 19.5442181 10.0658989 -0.499170005
   vertex 31.0287914 39.9886398 -0.166535288
  endloop
 endfacet
facet normal -0.0623975173 0.0128547642 0.997968614
  outer loop
   vertex 18.3977089 10.0658989 -0.570855021
   vertex 31.0287914 39.9886398 -0.166535288
   vertex 30.646286 39.9886398 -0.19045116
  endloop
 endfacet
facet normal -0.073482126 0.0171182249 0.997149587
  outer loop
   vertex 19.5442181 10.0658989 -0.499170005
   vertex 20.6338196 10.0658989 -0.418875009
   vertex 31.0287914 39.9886398 -0.166535288
  endloop
 endfacet
facet normal -0.082882911 0.0205056779 0.996348321
  outer loop
   vertex 20.6338196 10.0658989 -0.418875009
   vertex 21.6396294 10.0658989 -0.335204989
   vertex 31.7278709 39.9886398 -0.111832567
  endloop
 endfacet
facet normal -0.073482126 0.0171182249 0.997149587
  outer loop
   vertex 20.6338196 10.0658989 -0.418875009
   vertex 31.3923073 39.9886398 -0.139746919
   vertex 31.0287914 39.9886398 -0.166535288
  endloop
 endfacet
facet normal -0.082882911 0.0205056779 0.996348321
  outer loop
   vertex 20.6338196 10.0658989 -0.418875009
   vertex 31.7278709 39.9886398 -0.111832567
   vertex 31.3923073 39.9886398 -0.139746919
  endloop
 endfacet
facet normal -0.0911999866 0.0233156085 0.995559633
  outer loop
   vertex 21.6396294 10.0658989 -0.335204989
   vertex 22.5367794 10.0658989 -0.253019989
   vertex 31.7278709 39.9886398 -0.111832567
  endloop
 endfacet
facet normal -0.0986380726 0.0256790239 0.994791985
  outer loop
   vertex 22.5367794 10.0658989 -0.253019989
   vertex 23.3031597 10.0658989 -0.177029997
   vertex 32.2828636 39.9886398 -0.0590615273
  endloop
 endfacet
facet normal -0.0911999866 0.0233156085 0.995559633
  outer loop
   vertex 22.5367794 10.0658989 -0.253019989
   vertex 32.0271835 39.9886398 -0.0844136477
   vertex 31.7278709 39.9886398 -0.111832567
  endloop
 endfacet
facet normal -0.0986380726 0.0256790239 0.994791985
  outer loop
   vertex 22.5367794 10.0658989 -0.253019989
   vertex 32.2828636 39.9886398 -0.0590615273
   vertex 32.0271835 39.9886398 -0.0844136477
  endloop
 endfacet
facet normal -0.105183475 0.0276461281 0.994068444
  outer loop
   vertex 23.3031597 10.0658989 -0.177029997
   vertex 23.9198246 10.0658989 -0.111780003
   vertex 32.2828636 39.9886398 -0.0590615273
  endloop
 endfacet
facet normal -0.110547423 0.0291837249 0.993442297
  outer loop
   vertex 23.9198246 10.0658989 -0.111780003
   vertex 24.3715343 10.0658989 -0.0615149997
   vertex 32.4885979 39.9886398 -0.0372925363
  endloop
 endfacet
facet normal -0.105183475 0.0276461281 0.994068444
  outer loop
   vertex 23.9198246 10.0658989 -0.111780003
   vertex 32.4885979 39.9886398 -0.0372925363
   vertex 32.2828636 39.9886398 -0.0590615273
  endloop
 endfacet
facet normal -0.114425965 0.0302560274 0.992970943
  outer loop
   vertex 24.3715343 10.0658989 -0.0615149997
   vertex 24.6470985 10.0658989 -0.0297599994
   vertex 32.7312355 39.9886398 -0.00992866233
  endloop
 endfacet
facet normal -0.110547423 0.0291837249 0.993442297
  outer loop
   vertex 24.3715343 10.0658989 -0.0615149997
   vertex 32.6393013 39.9886398 -0.0205229055
   vertex 32.4885979 39.9886398 -0.0372925363
  endloop
 endfacet
facet normal -0.114425965 0.0302560274 0.992970943
  outer loop
   vertex 24.3715343 10.0658989 -0.0615149997
   vertex 32.7312355 39.9886398 -0.00992866233
   vertex 32.6393013 39.9886398 -0.0205229055
  endloop
 endfacet
facet normal -0.116394088 0.0307879113 0.99272579
  outer loop
   vertex 24.6470985 10.0658989 -0.0297599994
   vertex 24.7397232 10.0658989 -0.0188999996
   vertex 32.7621384 39.9886398 -0.00630550086
  endloop
 endfacet
facet normal -0.116394088 0.0307879113 0.99272579
  outer loop
   vertex 24.6470985 10.0658989 -0.0297599994
   vertex 32.7621384 39.9886398 -0.00630550086
   vertex 32.7312355 39.9886398 -0.00992866233
  endloop
 endfacet
facet normal -0.965668201 0.258890718 0.0214592945
  outer loop
   vertex 24.7397232 10.0658989 -0.0188999996
   vertex 32.7624168 39.9886398 0.00630550086
   vertex 32.7621384 39.9886398 -0.00630550086
  endloop
 endfacet
facet normal -0 -1 0
  outer loop
   vertex 32.7624168 39.9886398 0.00630550086
   vertex 32.7317047 39.9886398 0.0112898499
   vertex 32.7621384 39.9886398 -0.00630550086
  endloop
 endfacet
facet normal -0 -1 0
  outer loop
   vertex 32.7317047 39.9886398 0.0112898499
   vertex 32.6403275 39.9886398 0.0259326249
   vertex 32.7312355 39.9886398 -0.00992866233
  endloop
 endfacet
facet normal 0 -1 -0
  outer loop
   vertex 32.7317047 39.9886398 0.0112898499
   vertex 32.7312355 39.9886398 -0.00992866233
   vertex 32.7621384 39.9886398 -0.00630550086
  endloop
 endfacet
facet normal -0 -1 0
  outer loop
   vertex 32.6403275 39.9886398 0.0259326249
   vertex 32.490509 39.9886398 0.0493380427
   vertex 32.4885979 39.9886398 -0.0372925363
  endloop
 endfacet
facet normal 0 -1 0
  outer loop
   vertex 32.6403275 39.9886398 0.0259326249
   vertex 32.4885979 39.9886398 -0.0372925363
   vertex 32.6393013 39.9886398 -0.0205229055
  endloop
 endfacet
facet normal 0 -1 -0
  outer loop
   vertex 32.6403275 39.9886398 0.0259326249
   vertex 32.6393013 39.9886398 -0.0205229055
   vertex 32.7312355 39.9886398 -0.00992866233
  endloop
 endfacet
facet normal -0 -1 0
  outer loop
   vertex 32.490509 39.9886398 0.0493380427
   vertex 32.2859421 39.9886398 0.0801699385
   vertex 32.2828636 39.9886398 -0.0590615273
  endloop
 endfacet
facet normal 0 -1 0
  outer loop
   vertex 32.490509 39.9886398 0.0493380427
   vertex 32.2828636 39.9886398 -0.0590615273
   vertex 32.4885979 39.9886398 -0.0372925363
  endloop
 endfacet
facet normal -0 -1 0
  outer loop
   vertex 32.2859421 39.9886398 0.0801699385
   vertex 32.0316238 39.9886398 0.116781883
   vertex 32.2828636 39.9886398 -0.0590615273
  endloop
 endfacet
facet normal -0 -1 0
  outer loop
   vertex 32.0316238 39.9886398 0.116781883
   vertex 31.7338161 39.9886398 0.157387301
   vertex 32.0271835 39.9886398 -0.0844136477
  endloop
 endfacet
facet normal 0 -1 -0
  outer loop
   vertex 32.0316238 39.9886398 0.116781883
   vertex 32.0271835 39.9886398 -0.0844136477
   vertex 32.2828636 39.9886398 -0.0590615273
  endloop
 endfacet
facet normal -0 -1 0
  outer loop
   vertex 31.7338161 39.9886398 0.157387301
   vertex 31.3998146 39.9886398 0.200089559
   vertex 31.3923073 39.9886398 -0.139746919
  endloop
 endfacet
facet normal 0 -1 0
  outer loop
   vertex 31.7338161 39.9886398 0.157387301
   vertex 31.3923073 39.9886398 -0.139746919
   vertex 31.7278709 39.9886398 -0.111832567
  endloop
 endfacet
facet normal 0 -1 -0
  outer loop
   vertex 31.7338161 39.9886398 0.157387301
   vertex 31.7278709 39.9886398 -0.111832567
   vertex 32.0271835 39.9886398 -0.0844136477
  endloop
 endfacet
facet normal -0 -1 0
  outer loop
   vertex 31.3998146 39.9886398 0.200089559
   vertex 31.0378342 39.9886398 0.242896914
   vertex 31.3923073 39.9886398 -0.139746919
  endloop
 endfacet
facet normal -0 -1 0
  outer loop
   vertex 31.0378342 39.9886398 0.242896914
   vertex 30.6567554 39.9886398 0.283677489
   vertex 30.646286 39.9886398 -0.19045116
  endloop
 endfacet
facet normal 0 -1 0
  outer loop
   vertex 31.0378342 39.9886398 0.242896914
   vertex 30.646286 39.9886398 -0.19045116
   vertex 31.0287914 39.9886398 -0.166535288
  endloop
 endfacet
facet normal 0 -1 -0
  outer loop
   vertex 31.0378342 39.9886398 0.242896914
   vertex 31.0287914 39.9886398 -0.166535288
   vertex 31.3923073 39.9886398 -0.139746919
  endloop
 endfacet
facet normal -0 -1 0
  outer loop
   vertex 30.6567554 39.9886398 0.283677489
   vertex 30.2659454 39.9886398 0.320124269
   vertex 30.2542458 39.9886398 -0.209607869
  endloop
 endfacet
facet normal 0 -1 0
  outer loop
   vertex 30.6567554 39.9886398 0.283677489
   vertex 30.2542458 39.9886398 -0.209607869
   vertex 30.646286 39.9886398 -0.19045116
  endloop
 endfacet
facet normal -0 -1 0
  outer loop
   vertex 30.2659454 39.9886398 0.320124269
   vertex 29.8749847 39.9886398 0.349820197
   vertex 30.2542458 39.9886398 -0.209607869
  endloop
 endfacet
facet normal -0 -1 0
  outer loop
   vertex 29.8749847 39.9886398 0.349820197
   vertex 29.4934616 39.9886398 0.370393127
   vertex 29.8623524 39.9886398 -0.222018689
  endloop
 endfacet
facet normal 0 -1 -0
  outer loop
   vertex 29.8749847 39.9886398 0.349820197
   vertex 29.8623524 39.9886398 -0.222018689
   vertex 30.2542458 39.9886398 -0.209607869
  endloop
 endfacet
facet normal -0 -1 0
  outer loop
   vertex 29.4934616 39.9886398 0.370393127
   vertex 29.1307392 39.9886398 0.379771322
   vertex 29.4802952 39.9886398 -0.225726932
  endloop
 endfacet
facet normal 0 -1 -0
  outer loop
   vertex 29.4934616 39.9886398 0.370393127
   vertex 29.4802952 39.9886398 -0.225726932
   vertex 29.8623524 39.9886398 -0.222018689
  endloop
 endfacet
facet normal 0 -1 0
  outer loop
   vertex 29.1307392 39.9886398 0.379771322
   vertex 28.7957268 39.9886398 0.376488447
   vertex 29.1175137 39.9886398 -0.21908614
  endloop
 endfacet
facet normal 0 -1 -0
  outer loop
   vertex 29.1307392 39.9886398 0.379771322
   vertex 29.1175137 39.9886398 -0.21908614
   vertex 29.4802952 39.9886398 -0.225726932
  endloop
 endfacet
facet normal 0 -1 0
  outer loop
   vertex 28.7957268 39.9886398 0.376488447
   vertex 28.4899902 39.9886398 0.357632011
   vertex 28.4915771 39.9886398 -0.1736615
  endloop
 endfacet
facet normal 0 -1 0
  outer loop
   vertex 28.7957268 39.9886398 0.376488447
   vertex 28.4915771 39.9886398 -0.1736615
   vertex 28.7829704 39.9886398 -0.201015368
  endloop
 endfacet
facet normal 0 -1 -0
  outer loop
   vertex 28.7957268 39.9886398 0.376488447
   vertex 28.7829704 39.9886398 -0.201015368
   vertex 29.1175137 39.9886398 -0.21908614
  endloop
 endfacet
facet normal 0 -1 0
  outer loop
   vertex 28.4899902 39.9886398 0.357632011
   vertex 28.2198601 39.9886398 0.313548535
   vertex 28.2517128 39.9886398 -0.146242589
  endloop
 endfacet
facet normal 0 -1 -0
  outer loop
   vertex 28.4899902 39.9886398 0.357632011
   vertex 28.2517128 39.9886398 -0.146242589
   vertex 28.4915771 39.9886398 -0.1736615
  endloop
 endfacet
facet normal 0 -1 0
  outer loop
   vertex 28.2198601 39.9886398 0.313548535
   vertex 28.0027866 39.9886398 0.243722633
   vertex 28.0584793 39.9886398 -0.121035591
  endloop
 endfacet
facet normal 0 -1 -0
  outer loop
   vertex 28.2198601 39.9886398 0.313548535
   vertex 28.0584793 39.9886398 -0.121035591
   vertex 28.2517128 39.9886398 -0.146242589
  endloop
 endfacet
facet normal 0 -1 0
  outer loop
   vertex 28.0027866 39.9886398 0.243722633
   vertex 27.8512383 39.9886398 0.158973694
   vertex 27.9095192 39.9886398 -0.0935466141
  endloop
 endfacet
facet normal 0 -1 -0
  outer loop
   vertex 28.0027866 39.9886398 0.243722633
   vertex 27.9095192 39.9886398 -0.0935466141
   vertex 28.0584793 39.9886398 -0.121035591
  endloop
 endfacet
facet normal 0 -1 0
  outer loop
   vertex 27.8512383 39.9886398 0.158973694
   vertex 27.7701683 39.9886398 0.074074626
   vertex 27.8072701 39.9886398 -0.055883754
  endloop
 endfacet
facet normal 0 -1 -0
  outer loop
   vertex 27.8512383 39.9886398 0.158973694
   vertex 27.8072701 39.9886398 -0.055883754
   vertex 27.9095192 39.9886398 -0.0935466141
  endloop
 endfacet
facet normal 0 -1 -0
  outer loop
   vertex 27.7701683 39.9886398 0.074074626
   vertex 27.7579117 39.9886398 0
   vertex 27.8072701 39.9886398 -0.055883754
  endloop
 endfacet
endsolid MATLAB_1
