solid MATLAB_1
facet normal 0.15995647 0.0549185239 0.985595167
  outer loop
   vertex 21.7003765 -0 0.0273417085
   vertex 21.5672054 -0 0.0489546768
   vertex 25.3131046 -10.6514349 0.0345270187
  endloop
 endfacet
facet normal 0 1 0
  outer loop
   vertex 21.7003765 -0 0.0273417085
   vertex 21.6991615 -0 -0.0273417085
   vertex 21.5672054 -0 0.0489546768
  endloop
 endfacet
facet normal 0.944234252 0.328605235 -0.0209829826
  outer loop
   vertex 21.7003765 -0 0.0273417085
   vertex 25.4070282 -10.6514349 0.0192837082
   vertex 21.6991615 -0 -0.0273417085
  endloop
 endfacet
facet normal 0.15995647 0.0549185239 0.985595167
  outer loop
   vertex 21.7003765 -0 0.0273417085
   vertex 25.3131046 -10.6514349 0.0345270187
   vertex 25.4070282 -10.6514349 0.0192837082
  endloop
 endfacet
facet normal 0.157989696 0.0542263687 0.985950708
  outer loop
   vertex 21.5672054 -0 0.0489546768
   vertex 21.1709671 -0 0.112448201
   vertex 25.3131046 -10.6514349 0.0345270187
  endloop
 endfacet
facet normal 0 1 0
  outer loop
   vertex 21.5672054 -0 0.0489546768
   vertex 21.5651646 -0 -0.0430523418
   vertex 21.1709671 -0 0.112448201
  endloop
 endfacet
facet normal 0 1 0
  outer loop
   vertex 21.5672054 -0 0.0489546768
   vertex 21.6991615 -0 -0.0273417085
   vertex 21.5651646 -0 -0.0430523418
  endloop
 endfacet
facet normal 0.154140204 0.0528282411 0.986635685
  outer loop
   vertex 21.1709671 -0 0.112448201
   vertex 20.5213413 -0 0.213938028
   vertex 25.0336437 -10.6514349 0.0793080777
  endloop
 endfacet
facet normal 0 1 0
  outer loop
   vertex 21.1709671 -0 0.112448201
   vertex 20.513052 -0 -0.161706671
   vertex 20.5213413 -0 0.213938028
  endloop
 endfacet
facet normal 0 1 0
  outer loop
   vertex 21.1709671 -0 0.112448201
   vertex 21.1665192 -0 -0.0889907554
   vertex 20.513052 -0 -0.161706671
  endloop
 endfacet
facet normal 0 1 0
  outer loop
   vertex 21.1709671 -0 0.112448201
   vertex 21.5651646 -0 -0.0430523418
   vertex 21.1665192 -0 -0.0889907554
  endloop
 endfacet
facet normal 0.157989696 0.0542263687 0.985950708
  outer loop
   vertex 21.1709671 -0 0.112448201
   vertex 25.0336437 -10.6514349 0.0793080777
   vertex 25.3131046 -10.6514349 0.0345270187
  endloop
 endfacet
facet normal 0.148841113 0.0508058704 0.987555087
  outer loop
   vertex 20.5213413 -0 0.213938028
   vertex 19.6342983 -0 0.347630292
   vertex 24.5754719 -10.6514349 0.15088737
  endloop
 endfacet
facet normal 0 1 0
  outer loop
   vertex 20.5213413 -0 0.213938028
   vertex 19.6209526 -0 -0.256100684
   vertex 19.6342983 -0 0.347630292
  endloop
 endfacet
facet normal 0 1 0
  outer loop
   vertex 20.5213413 -0 0.213938028
   vertex 20.513052 -0 -0.161706671
   vertex 19.6209526 -0 -0.256100684
  endloop
 endfacet
facet normal 0.154140204 0.0528282411 0.986635685
  outer loop
   vertex 20.5213413 -0 0.213938028
   vertex 24.5754719 -10.6514349 0.15088737
   vertex 25.0336437 -10.6514349 0.0793080777
  endloop
 endfacet
facet normal 0.142327577 0.0481563248 0.988647461
  outer loop
   vertex 19.6342983 -0 0.347630292
   vertex 18.531538 -0 0.506385803
   vertex 23.9498539 -10.6514349 0.24517858
  endloop
 endfacet
facet normal 0 1 0
  outer loop
   vertex 19.6342983 -0 0.347630292
   vertex 19.6209526 -0 -0.256100684
   vertex 18.531538 -0 0.506385803
  endloop
 endfacet
facet normal 0.148841113 0.0508058704 0.987555087
  outer loop
   vertex 19.6342983 -0 0.347630292
   vertex 23.9498539 -10.6514349 0.24517858
   vertex 24.5754719 -10.6514349 0.15088737
  endloop
 endfacet
facet normal 0.134960428 0.0449300595 0.989831805
  outer loop
   vertex 18.531538 -0 0.506385803
   vertex 17.2401848 -0 0.682457745
   vertex 22.2613201 -10.6514349 0.481327474
  endloop
 endfacet
facet normal 0 1 0
  outer loop
   vertex 18.531538 -0 0.506385803
   vertex 18.5122681 -0 -0.366031706
   vertex 17.2401848 -0 0.682457745
  endloop
 endfacet
facet normal 0 1 0
  outer loop
   vertex 18.531538 -0 0.506385803
   vertex 19.6209526 -0 -0.256100684
   vertex 18.5122681 -0 -0.366031706
  endloop
 endfacet
facet normal 0.142327577 0.0481563248 0.988647461
  outer loop
   vertex 18.531538 -0 0.506385803
   vertex 23.1720924 -10.6514349 0.357146531
   vertex 23.9498539 -10.6514349 0.24517858
  endloop
 endfacet
facet normal 0.134960428 0.0449300595 0.989831805
  outer loop
   vertex 18.531538 -0 0.506385803
   vertex 22.2613201 -10.6514349 0.481327474
   vertex 23.1720924 -10.6514349 0.357146531
  endloop
 endfacet
facet normal 0.126711532 0.0410177074 0.991091192
  outer loop
   vertex 17.2401848 -0 0.682457745
   vertex 15.7918978 -0 0.867621839
   vertex 21.2398663 -10.6514349 0.611921012
  endloop
 endfacet
facet normal 0 1 0
  outer loop
   vertex 17.2401848 -0 0.682457745
   vertex 15.7593489 -0 -0.605966032
   vertex 15.7918978 -0 0.867621839
  endloop
 endfacet
facet normal 0 1 0
  outer loop
   vertex 17.2401848 -0 0.682457745
   vertex 17.2144051 -0 -0.484924734
   vertex 15.7593489 -0 -0.605966032
  endloop
 endfacet
facet normal 0 1 0
  outer loop
   vertex 17.2401848 -0 0.682457745
   vertex 18.5122681 -0 -0.366031706
   vertex 17.2144051 -0 -0.484924734
  endloop
 endfacet
facet normal 0.126711532 0.0410177074 0.991091192
  outer loop
   vertex 17.2401848 -0 0.682457745
   vertex 21.2398663 -10.6514349 0.611921012
   vertex 22.2613201 -10.6514349 0.481327474
  endloop
 endfacet
facet normal 0.117363259 0.0362041667 0.992428899
  outer loop
   vertex 15.7918978 -0 0.867621839
   vertex 14.2222891 -0 1.05324173
   vertex 21.2398663 -10.6514349 0.611921012
  endloop
 endfacet
facet normal 0 1 0
  outer loop
   vertex 15.7918978 -0 0.867621839
   vertex 15.7593489 -0 -0.605966032
   vertex 14.2222891 -0 1.05324173
  endloop
 endfacet
facet normal 0.10635826 0.030055318 0.993873537
  outer loop
   vertex 14.2222891 -0 1.05324173
   vertex 12.5698729 -0 1.23007309
   vertex 18.9674187 -10.6514349 0.867552578
  endloop
 endfacet
facet normal 0 1 0
  outer loop
   vertex 14.2222891 -0 1.05324173
   vertex 12.524477 -0 -0.825828075
   vertex 12.5698729 -0 1.23007309
  endloop
 endfacet
facet normal 0 1 0
  outer loop
   vertex 14.2222891 -0 1.05324173
   vertex 14.1830778 -0 -0.722124934
   vertex 12.524477 -0 -0.825828075
  endloop
 endfacet
facet normal 0 1 0
  outer loop
   vertex 14.2222891 -0 1.05324173
   vertex 15.7593489 -0 -0.605966032
   vertex 14.1830778 -0 -0.722124934
  endloop
 endfacet
facet normal 0.117363259 0.0362041667 0.992428899
  outer loop
   vertex 14.2222891 -0 1.05324173
   vertex 20.132843 -10.6514349 0.742835999
   vertex 21.2398663 -10.6514349 0.611921012
  endloop
 endfacet
facet normal 0.10635826 0.030055318 0.993873537
  outer loop
   vertex 14.2222891 -0 1.05324173
   vertex 18.9674187 -10.6514349 0.867552578
   vertex 20.132843 -10.6514349 0.742835999
  endloop
 endfacet
facet normal 0.0928342491 0.0218790695 0.995441139
  outer loop
   vertex 12.5698729 -0 1.23007309
   vertex 10.8752518 -0 1.38811255
   vertex 17.7722263 -10.6514349 0.97901547
  endloop
 endfacet
facet normal 0 1 0
  outer loop
   vertex 12.5698729 -0 1.23007309
   vertex 10.8245173 -0 -0.908894837
   vertex 10.8752518 -0 1.38811255
  endloop
 endfacet
facet normal 0 1 0
  outer loop
   vertex 12.5698729 -0 1.23007309
   vertex 12.524477 -0 -0.825828075
   vertex 10.8245173 -0 -0.908894837
  endloop
 endfacet
facet normal 0.0928342491 0.0218790695 0.995441139
  outer loop
   vertex 12.5698729 -0 1.23007309
   vertex 17.7722263 -10.6514349 0.97901547
   vertex 18.9674187 -10.6514349 0.867552578
  endloop
 endfacet
facet normal 0.0757336393 0.0107435798 0.997070193
  outer loop
   vertex 10.8752518 -0 1.38811255
   vertex 9.17997837 -0 1.51687896
   vertex 16.5765743 -10.6514349 1.06983256
  endloop
 endfacet
facet normal 0 1 0
  outer loop
   vertex 10.8752518 -0 1.38811255
   vertex 10.8245173 -0 -0.908894837
   vertex 9.17997837 -0 1.51687896
  endloop
 endfacet
facet normal 0.0757336393 0.0107435798 0.997070193
  outer loop
   vertex 10.8752518 -0 1.38811255
   vertex 16.5765743 -10.6514349 1.06983256
   vertex 17.7722263 -10.6514349 0.97901547
  endloop
 endfacet
facet normal 0.0538444631 -0.00451840507 0.99853909
  outer loop
   vertex 9.17997837 -0 1.51687896
   vertex 7.5256319 -0 1.60608673
   vertex 16.5765743 -10.6514349 1.06983256
  endloop
 endfacet
facet normal 0 1 0
  outer loop
   vertex 9.17997837 -0 1.51687896
   vertex 9.12520885 -0 -0.962710261
   vertex 7.5256319 -0 1.60608673
  endloop
 endfacet
facet normal 0 1 0
  outer loop
   vertex 9.17997837 -0 1.51687896
   vertex 10.8245173 -0 -0.908894837
   vertex 9.12520885 -0 -0.962710261
  endloop
 endfacet
facet normal 0.0258381516 -0.0252844561 0.999346316
  outer loop
   vertex 7.5256319 -0 1.60608673
   vertex 5.95281076 -0 1.646752
   vertex 14.3005009 -10.6514349 1.16143024
  endloop
 endfacet
facet normal 0 1 0
  outer loop
   vertex 7.5256319 -0 1.60608673
   vertex 7.46853971 -0 -0.978789747
   vertex 5.95281076 -0 1.646752
  endloop
 endfacet
facet normal 0 1 0
  outer loop
   vertex 7.5256319 -0 1.60608673
   vertex 9.12520885 -0 -0.962710261
   vertex 7.46853971 -0 -0.978789747
  endloop
 endfacet
facet normal 0.0538444631 -0.00451840507 0.99853909
  outer loop
   vertex 7.5256319 -0 1.60608673
   vertex 15.4097881 -10.6514349 1.13274956
   vertex 16.5765743 -10.6514349 1.06983256
  endloop
 endfacet
facet normal 0.0258381516 -0.0252844561 0.999346316
  outer loop
   vertex 7.5256319 -0 1.60608673
   vertex 14.3005009 -10.6514349 1.16143024
   vertex 15.4097881 -10.6514349 1.13274956
  endloop
 endfacet
facet normal -0.00978490617 -0.0531659387 0.998537779
  outer loop
   vertex 5.95281076 -0 1.646752
   vertex 4.50014162 -0 1.63251698
   vertex 14.3005009 -10.6514349 1.16143024
  endloop
 endfacet
facet normal 0 1 0
  outer loop
   vertex 5.95281076 -0 1.646752
   vertex 5.89545822 -0 -0.949994147
   vertex 4.50014162 -0 1.63251698
  endloop
 endfacet
facet normal 0 1 0
  outer loop
   vertex 5.95281076 -0 1.646752
   vertex 7.46853971 -0 -0.978789747
   vertex 5.89545822 -0 -0.949994147
  endloop
 endfacet
facet normal -0.0612779148 -0.0953663886 0.993554354
  outer loop
   vertex 4.50014162 -0 1.63251698
   vertex 3.17441583 -0 1.55075228
   vertex 12.3409395 -10.6514349 1.09372294
  endloop
 endfacet
facet normal 0 1 0
  outer loop
   vertex 4.50014162 -0 1.63251698
   vertex 3.18129468 -0 -0.753025353
   vertex 3.17441583 -0 1.55075228
  endloop
 endfacet
facet normal 0 1 0
  outer loop
   vertex 4.50014162 -0 1.63251698
   vertex 4.44482851 -0 -0.871636331
   vertex 3.18129468 -0 -0.753025353
  endloop
 endfacet
facet normal 0 1 0
  outer loop
   vertex 4.50014162 -0 1.63251698
   vertex 5.89545822 -0 -0.949994147
   vertex 4.44482851 -0 -0.871636331
  endloop
 endfacet
facet normal -0.00978490617 -0.0531659387 0.998537779
  outer loop
   vertex 4.50014162 -0 1.63251698
   vertex 13.2759542 -10.6514349 1.15139043
   vertex 14.3005009 -10.6514349 1.16143024
  endloop
 endfacet
facet normal -0.0612779148 -0.0953663886 0.993554354
  outer loop
   vertex 4.50014162 -0 1.63251698
   vertex 12.3409395 -10.6514349 1.09372294
   vertex 13.2759542 -10.6514349 1.15139043
  endloop
 endfacet
facet normal -0.158488512 -0.17806451 0.971171677
  outer loop
   vertex 3.17441583 -0 1.55075228
   vertex 2.00308394 -0 1.35959899
   vertex 11.5148163 -10.6514349 0.958905339
  endloop
 endfacet
facet normal 0 1 0
  outer loop
   vertex 3.17441583 -0 1.55075228
   vertex 2.14120293 -0 -0.634132326
   vertex 2.00308394 -0 1.35959899
  endloop
 endfacet
facet normal 0 1 0
  outer loop
   vertex 3.17441583 -0 1.55075228
   vertex 3.18129468 -0 -0.753025353
   vertex 2.14120293 -0 -0.634132326
  endloop
 endfacet
facet normal -0.158488512 -0.17806451 0.971171677
  outer loop
   vertex 3.17441583 -0 1.55075228
   vertex 11.5148163 -10.6514349 0.958905339
   vertex 12.3409395 -10.6514349 1.09372294
  endloop
 endfacet
facet normal -0.292545319 -0.295455843 0.909463048
  outer loop
   vertex 2.00308394 -0 1.35959899
   vertex 1.06181312 -0 1.05682218
   vertex 11.5148163 -10.6514349 0.958905339
  endloop
 endfacet
facet normal 0 1 0
  outer loop
   vertex 2.00308394 -0 1.35959899
   vertex 1.3033098 -0 -0.52483058
   vertex 1.06181312 -0 1.05682218
  endloop
 endfacet
facet normal 0 1 0
  outer loop
   vertex 2.00308394 -0 1.35959899
   vertex 2.14120293 -0 -0.634132326
   vertex 1.3033098 -0 -0.52483058
  endloop
 endfacet
facet normal -0.441033393 -0.428390265 0.788651586
  outer loop
   vertex 1.06181312 -0 1.05682218
   vertex 0.404679 -0 0.689336538
   vertex 10.3874846 -10.6514349 0.486179024
  endloop
 endfacet
facet normal 0 1 0
  outer loop
   vertex 1.06181312 -0 1.05682218
   vertex 0.657394469 -0 -0.405633777
   vertex 0.404679 -0 0.689336538
  endloop
 endfacet
facet normal 0 1 0
  outer loop
   vertex 1.06181312 -0 1.05682218
   vertex 1.3033098 -0 -0.52483058
   vertex 0.657394469 -0 -0.405633777
  endloop
 endfacet
facet normal -0.292545319 -0.295455843 0.909463048
  outer loop
   vertex 1.06181312 -0 1.05682218
   vertex 10.8509512 -10.6514349 0.745361209
   vertex 11.5148163 -10.6514349 0.958905339
  endloop
 endfacet
facet normal -0.441033393 -0.428390265 0.788651586
  outer loop
   vertex 1.06181312 -0 1.05682218
   vertex 10.3874846 -10.6514349 0.486179024
   vertex 10.8509512 -10.6514349 0.745361209
  endloop
 endfacet
facet normal -0.594994426 -0.568481147 0.568164408
  outer loop
   vertex 0.404679 -0 0.689336538
   vertex 0.0531427339 -0 0.321199983
   vertex 10.3874846 -10.6514349 0.486179024
  endloop
 endfacet
facet normal 0 1 0
  outer loop
   vertex 0.404679 -0 0.689336538
   vertex 0.214024812 -0 -0.242321312
   vertex 0.0531427339 -0 0.321199983
  endloop
 endfacet
facet normal 0 1 0
  outer loop
   vertex 0.404679 -0 0.689336538
   vertex 0.657394469 -0 -0.405633777
   vertex 0.214024812 -0 -0.242321312
  endloop
 endfacet
facet normal -0.720398128 -0.68324244 0.119190313
  outer loop
   vertex 0.0531427339 -0 0.321199983
   vertex 0 -0 0
   vertex 10.1020699 -10.6514349 0
  endloop
 endfacet
facet normal 0 1 0
  outer loop
   vertex 0.0531427339 -0 0.321199983
   vertex 0.214024812 -0 -0.242321312
   vertex 0 -0 0
  endloop
 endfacet
facet normal -0.594994426 -0.568481147 0.568164408
  outer loop
   vertex 0.0531427339 -0 0.321199983
   vertex 10.1395512 -10.6514349 0.22653766
   vertex 10.3874846 -10.6514349 0.486179024
  endloop
 endfacet
facet normal -0.720398128 -0.68324244 0.119190313
  outer loop
   vertex 0.0531427339 -0 0.321199983
   vertex 10.1020699 -10.6514349 0
   vertex 10.1395512 -10.6514349 0.22653766
  endloop
 endfacet
facet normal -0.610893071 -0.579385281 -0.539557517
  outer loop
   vertex 0 -0 0
   vertex 0.214024812 -0 -0.242321312
   vertex 10.2530184 -10.6514349 -0.170905694
  endloop
 endfacet
facet normal -0.610893071 -0.579385281 -0.539557517
  outer loop
   vertex 0 -0 0
   vertex 10.2530184 -10.6514349 -0.170905694
   vertex 10.1020699 -10.6514349 0
  endloop
 endfacet
facet normal -0.328029484 -0.315139264 -0.89055258
  outer loop
   vertex 0.214024812 -0 -0.242321312
   vertex 0.657394469 -0 -0.405633777
   vertex 10.2530184 -10.6514349 -0.170905694
  endloop
 endfacet
facet normal -0.178609505 -0.17701146 -0.96786654
  outer loop
   vertex 0.657394469 -0 -0.405633777
   vertex 1.3033098 -0 -0.52483058
   vertex 10.5657206 -10.6514349 -0.286087573
  endloop
 endfacet
facet normal -0.328029484 -0.315139264 -0.89055258
  outer loop
   vertex 0.657394469 -0 -0.405633777
   vertex 10.5657206 -10.6514349 -0.286087573
   vertex 10.2530184 -10.6514349 -0.170905694
  endloop
 endfacet
facet normal -0.12823303 -0.131269887 -0.983018041
  outer loop
   vertex 1.3033098 -0 -0.52483058
   vertex 2.14120293 -0 -0.634132326
   vertex 11.6122293 -10.6514349 -0.447244287
  endloop
 endfacet
facet normal -0.178609505 -0.17701146 -0.96786654
  outer loop
   vertex 1.3033098 -0 -0.52483058
   vertex 11.0212755 -10.6514349 -0.370155364
   vertex 10.5657206 -10.6514349 -0.286087573
  endloop
 endfacet
facet normal -0.12823303 -0.131269887 -0.983018041
  outer loop
   vertex 1.3033098 -0 -0.52483058
   vertex 11.6122293 -10.6514349 -0.447244287
   vertex 11.0212755 -10.6514349 -0.370155364
  endloop
 endfacet
facet normal -0.11278256 -0.117595159 -0.98663646
  outer loop
   vertex 2.14120293 -0 -0.634132326
   vertex 3.18129468 -0 -0.753025353
   vertex 11.6122293 -10.6514349 -0.447244287
  endloop
 endfacet
facet normal -0.092986919 -0.100644886 -0.990567505
  outer loop
   vertex 3.18129468 -0 -0.753025353
   vertex 4.44482851 -0 -0.871636331
   vertex 12.3457909 -10.6514349 -0.531097829
  endloop
 endfacet
facet normal -0.11278256 -0.117595159 -0.98663646
  outer loop
   vertex 3.18129468 -0 -0.753025353
   vertex 12.3457909 -10.6514349 -0.531097829
   vertex 11.6122293 -10.6514349 -0.447244287
  endloop
 endfacet
facet normal -0.0538113378 -0.068443723 -0.996202707
  outer loop
   vertex 4.44482851 -0 -0.871636331
   vertex 5.89545822 -0 -0.949994147
   vertex 13.2369432 -10.6514349 -0.614752352
  endloop
 endfacet
facet normal -0.092986919 -0.100644886 -0.990567505
  outer loop
   vertex 4.44482851 -0 -0.871636331
   vertex 13.2369432 -10.6514349 -0.614752352
   vertex 12.3457909 -10.6514349 -0.531097829
  endloop
 endfacet
facet normal -0.018287044 -0.0406201482 -0.999007285
  outer loop
   vertex 5.89545822 -0 -0.949994147
   vertex 7.46853971 -0 -0.978789747
   vertex 15.3695221 -10.6514349 -0.690326154
  endloop
 endfacet
facet normal -0.0538113378 -0.068443723 -0.996202707
  outer loop
   vertex 5.89545822 -0 -0.949994147
   vertex 14.2600508 -10.6514349 -0.670017004
   vertex 13.2369432 -10.6514349 -0.614752352
  endloop
 endfacet
facet normal -0.018287044 -0.0406201482 -0.999007285
  outer loop
   vertex 5.89545822 -0 -0.949994147
   vertex 15.3695221 -10.6514349 -0.690326154
   vertex 14.2600508 -10.6514349 -0.670017004
  endloop
 endfacet
facet normal 0.00970356539 -0.0198776368 -0.999755323
  outer loop
   vertex 7.46853971 -0 -0.978789747
   vertex 9.12520885 -0 -0.962710261
   vertex 15.3695221 -10.6514349 -0.690326154
  endloop
 endfacet
facet normal 0.0316528045 -0.0045952159 -0.999488354
  outer loop
   vertex 9.12520885 -0 -0.962710261
   vertex 10.8245173 -0 -0.908894837
   vertex 16.5379467 -10.6514349 -0.678985476
  endloop
 endfacet
facet normal 0.00970356539 -0.0198776368 -0.999755323
  outer loop
   vertex 9.12520885 -0 -0.962710261
   vertex 16.5379467 -10.6514349 -0.678985476
   vertex 15.3695221 -10.6514349 -0.690326154
  endloop
 endfacet
facet normal 0.0488046482 0.00655259611 -0.998786867
  outer loop
   vertex 10.8245173 -0 -0.908894837
   vertex 12.524477 -0 -0.825828075
   vertex 18.9354019 -10.6514349 -0.582444489
  endloop
 endfacet
facet normal 0.0316528045 -0.0045952159 -0.999488354
  outer loop
   vertex 10.8245173 -0 -0.908894837
   vertex 17.7364445 -10.6514349 -0.641030252
   vertex 16.5379467 -10.6514349 -0.678985476
  endloop
 endfacet
facet normal 0.0488046482 0.00655259611 -0.998786867
  outer loop
   vertex 10.8245173 -0 -0.908894837
   vertex 18.9354019 -10.6514349 -0.582444489
   vertex 17.7364445 -10.6514349 -0.641030252
  endloop
 endfacet
facet normal 0.0623958819 0.0147522325 -0.997942448
  outer loop
   vertex 12.524477 -0 -0.825828075
   vertex 14.1830778 -0 -0.722124934
   vertex 18.9354019 -10.6514349 -0.582444489
  endloop
 endfacet
facet normal 0.0734767988 0.0209304169 -0.997077286
  outer loop
   vertex 14.1830778 -0 -0.722124934
   vertex 15.7593489 -0 -0.605966032
   vertex 20.1051884 -10.6514349 -0.509304166
  endloop
 endfacet
facet normal 0.0623958819 0.0147522325 -0.997942448
  outer loop
   vertex 14.1830778 -0 -0.722124934
   vertex 20.1051884 -10.6514349 -0.509304166
   vertex 18.9354019 -10.6514349 -0.582444489
  endloop
 endfacet
facet normal 0.0828728378 0.0257589929 -0.996227145
  outer loop
   vertex 15.7593489 -0 -0.605966032
   vertex 17.2144051 -0 -0.484924734
   vertex 22.2431393 -10.6514349 -0.342010349
  endloop
 endfacet
facet normal 0.0734767988 0.0209304169 -0.997077286
  outer loop
   vertex 15.7593489 -0 -0.605966032
   vertex 21.2169094 -10.6514349 -0.427379012
   vertex 20.1051884 -10.6514349 -0.509304166
  endloop
 endfacet
facet normal 0.0828728378 0.0257589929 -0.996227145
  outer loop
   vertex 15.7593489 -0 -0.605966032
   vertex 22.2431393 -10.6514349 -0.342010349
   vertex 21.2169094 -10.6514349 -0.427379012
  endloop
 endfacet
facet normal 0.0911845565 0.0296943206 -0.99539119
  outer loop
   vertex 17.2144051 -0 -0.484924734
   vertex 18.5122681 -0 -0.366031706
   vertex 23.1585026 -10.6514349 -0.258156806
  endloop
 endfacet
facet normal 0.0911845565 0.0296943206 -0.99539119
  outer loop
   vertex 17.2144051 -0 -0.484924734
   vertex 23.1585026 -10.6514349 -0.258156806
   vertex 22.2431393 -10.6514349 -0.342010349
  endloop
 endfacet
facet normal 0.0986170471 0.0329446457 -0.994579971
  outer loop
   vertex 18.5122681 -0 -0.366031706
   vertex 19.6209526 -0 -0.256100684
   vertex 23.1585026 -10.6514349 -0.258156806
  endloop
 endfacet
facet normal 0.105156988 0.0356021933 -0.993818164
  outer loop
   vertex 19.6209526 -0 -0.256100684
   vertex 20.513052 -0 -0.161706671
   vertex 23.9404411 -10.6514349 -0.180624068
  endloop
 endfacet
facet normal 0.0986170471 0.0329446457 -0.994579971
  outer loop
   vertex 19.6209526 -0 -0.256100684
   vertex 23.9404411 -10.6514349 -0.180624068
   vertex 23.1585026 -10.6514349 -0.258156806
  endloop
 endfacet
facet normal 0.110516131 0.0376461521 -0.993161082
  outer loop
   vertex 20.513052 -0 -0.161706671
   vertex 21.1665192 -0 -0.0889907554
   vertex 25.0305061 -10.6514349 -0.0627638772
  endloop
 endfacet
facet normal 0.105156988 0.0356021933 -0.993818164
  outer loop
   vertex 20.513052 -0 -0.161706671
   vertex 24.5696259 -10.6514349 -0.11404936
   vertex 23.9404411 -10.6514349 -0.180624068
  endloop
 endfacet
facet normal 0.110516131 0.0376461521 -0.993161082
  outer loop
   vertex 20.513052 -0 -0.161706671
   vertex 25.0305061 -10.6514349 -0.0627638772
   vertex 24.5696259 -10.6514349 -0.11404936
  endloop
 endfacet
facet normal 0.114391044 0.0390530564 -0.992667913
  outer loop
   vertex 21.1665192 -0 -0.0889907554
   vertex 21.5651646 -0 -0.0430523418
   vertex 25.0305061 -10.6514349 -0.0627638772
  endloop
 endfacet
facet normal 0.116357282 0.0397449546 -0.992411852
  outer loop
   vertex 21.5651646 -0 -0.0430523418
   vertex 21.6991615 -0 -0.0273417085
   vertex 25.3116665 -10.6514349 -0.0303641874
  endloop
 endfacet
facet normal 0.114391044 0.0390530564 -0.992667913
  outer loop
   vertex 21.5651646 -0 -0.0430523418
   vertex 25.3116665 -10.6514349 -0.0303641874
   vertex 25.0305061 -10.6514349 -0.0627638772
  endloop
 endfacet
facet normal 0.944234252 0.328605235 -0.0209829826
  outer loop
   vertex 21.6991615 -0 -0.0273417085
   vertex 25.4070282 -10.6514349 0.0192837082
   vertex 25.4061718 -10.6514349 -0.0192837082
  endloop
 endfacet
facet normal 0.116357282 0.0397449546 -0.992411852
  outer loop
   vertex 21.6991615 -0 -0.0273417085
   vertex 25.4061718 -10.6514349 -0.0192837082
   vertex 25.3116665 -10.6514349 -0.0303641874
  endloop
 endfacet
facet normal -0 -1 0
  outer loop
   vertex 25.4070282 -10.6514349 0.0192837082
   vertex 25.3131046 -10.6514349 0.0345270187
   vertex 25.4061718 -10.6514349 -0.0192837082
  endloop
 endfacet
facet normal -0 -1 0
  outer loop
   vertex 25.3131046 -10.6514349 0.0345270187
   vertex 25.0336437 -10.6514349 0.0793080777
   vertex 25.3116665 -10.6514349 -0.0303641874
  endloop
 endfacet
facet normal 0 -1 -0
  outer loop
   vertex 25.3131046 -10.6514349 0.0345270187
   vertex 25.3116665 -10.6514349 -0.0303641874
   vertex 25.4061718 -10.6514349 -0.0192837082
  endloop
 endfacet
facet normal -0 -1 0
  outer loop
   vertex 25.0336437 -10.6514349 0.0793080777
   vertex 24.5754719 -10.6514349 0.15088737
   vertex 24.5696259 -10.6514349 -0.11404936
  endloop
 endfacet
facet normal 0 -1 0
  outer loop
   vertex 25.0336437 -10.6514349 0.0793080777
   vertex 24.5696259 -10.6514349 -0.11404936
   vertex 25.0305061 -10.6514349 -0.0627638772
  endloop
 endfacet
facet normal 0 -1 -0
  outer loop
   vertex 25.0336437 -10.6514349 0.0793080777
   vertex 25.0305061 -10.6514349 -0.0627638772
   vertex 25.3116665 -10.6514349 -0.0303641874
  endloop
 endfacet
facet normal -0 -1 0
  outer loop
   vertex 24.5754719 -10.6514349 0.15088737
   vertex 23.9498539 -10.6514349 0.24517858
   vertex 23.9404411 -10.6514349 -0.180624068
  endloop
 endfacet
facet normal 0 -1 0
  outer loop
   vertex 24.5754719 -10.6514349 0.15088737
   vertex 23.9404411 -10.6514349 -0.180624068
   vertex 24.5696259 -10.6514349 -0.11404936
  endloop
 endfacet
facet normal -0 -1 0
  outer loop
   vertex 23.9498539 -10.6514349 0.24517858
   vertex 23.1720924 -10.6514349 0.357146531
   vertex 23.9404411 -10.6514349 -0.180624068
  endloop
 endfacet
facet normal -0 -1 0
  outer loop
   vertex 23.1720924 -10.6514349 0.357146531
   vertex 22.2613201 -10.6514349 0.481327474
   vertex 23.1585026 -10.6514349 -0.258156806
  endloop
 endfacet
facet normal 0 -1 -0
  outer loop
   vertex 23.1720924 -10.6514349 0.357146531
   vertex 23.1585026 -10.6514349 -0.258156806
   vertex 23.9404411 -10.6514349 -0.180624068
  endloop
 endfacet
facet normal -0 -1 0
  outer loop
   vertex 22.2613201 -10.6514349 0.481327474
   vertex 21.2398663 -10.6514349 0.611921012
   vertex 21.2169094 -10.6514349 -0.427379012
  endloop
 endfacet
facet normal 0 -1 0
  outer loop
   vertex 22.2613201 -10.6514349 0.481327474
   vertex 21.2169094 -10.6514349 -0.427379012
   vertex 22.2431393 -10.6514349 -0.342010349
  endloop
 endfacet
facet normal 0 -1 -0
  outer loop
   vertex 22.2613201 -10.6514349 0.481327474
   vertex 22.2431393 -10.6514349 -0.342010349
   vertex 23.1585026 -10.6514349 -0.258156806
  endloop
 endfacet
facet normal -0 -1 0
  outer loop
   vertex 21.2398663 -10.6514349 0.611921012
   vertex 20.132843 -10.6514349 0.742835999
   vertex 21.2169094 -10.6514349 -0.427379012
  endloop
 endfacet
facet normal -0 -1 0
  outer loop
   vertex 20.132843 -10.6514349 0.742835999
   vertex 18.9674187 -10.6514349 0.867552578
   vertex 18.9354019 -10.6514349 -0.582444489
  endloop
 endfacet
facet normal 0 -1 0
  outer loop
   vertex 20.132843 -10.6514349 0.742835999
   vertex 18.9354019 -10.6514349 -0.582444489
   vertex 20.1051884 -10.6514349 -0.509304166
  endloop
 endfacet
facet normal 0 -1 -0
  outer loop
   vertex 20.132843 -10.6514349 0.742835999
   vertex 20.1051884 -10.6514349 -0.509304166
   vertex 21.2169094 -10.6514349 -0.427379012
  endloop
 endfacet
facet normal -0 -1 0
  outer loop
   vertex 18.9674187 -10.6514349 0.867552578
   vertex 17.7722263 -10.6514349 0.97901547
   vertex 17.7364445 -10.6514349 -0.641030252
  endloop
 endfacet
facet normal 0 -1 0
  outer loop
   vertex 18.9674187 -10.6514349 0.867552578
   vertex 17.7364445 -10.6514349 -0.641030252
   vertex 18.9354019 -10.6514349 -0.582444489
  endloop
 endfacet
facet normal -0 -1 0
  outer loop
   vertex 17.7722263 -10.6514349 0.97901547
   vertex 16.5765743 -10.6514349 1.06983256
   vertex 17.7364445 -10.6514349 -0.641030252
  endloop
 endfacet
facet normal -0 -1 0
  outer loop
   vertex 16.5765743 -10.6514349 1.06983256
   vertex 15.4097881 -10.6514349 1.13274956
   vertex 16.5379467 -10.6514349 -0.678985476
  endloop
 endfacet
facet normal 0 -1 -0
  outer loop
   vertex 16.5765743 -10.6514349 1.06983256
   vertex 16.5379467 -10.6514349 -0.678985476
   vertex 17.7364445 -10.6514349 -0.641030252
  endloop
 endfacet
facet normal -0 -1 0
  outer loop
   vertex 15.4097881 -10.6514349 1.13274956
   vertex 14.3005009 -10.6514349 1.16143024
   vertex 15.3695221 -10.6514349 -0.690326154
  endloop
 endfacet
facet normal 0 -1 -0
  outer loop
   vertex 15.4097881 -10.6514349 1.13274956
   vertex 15.3695221 -10.6514349 -0.690326154
   vertex 16.5379467 -10.6514349 -0.678985476
  endloop
 endfacet
facet normal 0 -1 0
  outer loop
   vertex 14.3005009 -10.6514349 1.16143024
   vertex 13.2759542 -10.6514349 1.15139043
   vertex 14.2600508 -10.6514349 -0.670017004
  endloop
 endfacet
facet normal 0 -1 -0
  outer loop
   vertex 14.3005009 -10.6514349 1.16143024
   vertex 14.2600508 -10.6514349 -0.670017004
   vertex 15.3695221 -10.6514349 -0.690326154
  endloop
 endfacet
facet normal 0 -1 0
  outer loop
   vertex 13.2759542 -10.6514349 1.15139043
   vertex 12.3409395 -10.6514349 1.09372294
   vertex 12.3457909 -10.6514349 -0.531097829
  endloop
 endfacet
facet normal 0 -1 0
  outer loop
   vertex 13.2759542 -10.6514349 1.15139043
   vertex 12.3457909 -10.6514349 -0.531097829
   vertex 13.2369432 -10.6514349 -0.614752352
  endloop
 endfacet
facet normal 0 -1 -0
  outer loop
   vertex 13.2759542 -10.6514349 1.15139043
   vertex 13.2369432 -10.6514349 -0.614752352
   vertex 14.2600508 -10.6514349 -0.670017004
  endloop
 endfacet
facet normal 0 -1 0
  outer loop
   vertex 12.3409395 -10.6514349 1.09372294
   vertex 11.5148163 -10.6514349 0.958905339
   vertex 11.6122293 -10.6514349 -0.447244287
  endloop
 endfacet
facet normal 0 -1 -0
  outer loop
   vertex 12.3409395 -10.6514349 1.09372294
   vertex 11.6122293 -10.6514349 -0.447244287
   vertex 12.3457909 -10.6514349 -0.531097829
  endloop
 endfacet
facet normal 0 -1 0
  outer loop
   vertex 11.5148163 -10.6514349 0.958905339
   vertex 10.8509512 -10.6514349 0.745361209
   vertex 11.0212755 -10.6514349 -0.370155364
  endloop
 endfacet
facet normal 0 -1 -0
  outer loop
   vertex 11.5148163 -10.6514349 0.958905339
   vertex 11.0212755 -10.6514349 -0.370155364
   vertex 11.6122293 -10.6514349 -0.447244287
  endloop
 endfacet
facet normal 0 -1 0
  outer loop
   vertex 10.8509512 -10.6514349 0.745361209
   vertex 10.3874846 -10.6514349 0.486179024
   vertex 10.5657206 -10.6514349 -0.286087573
  endloop
 endfacet
facet normal 0 -1 -0
  outer loop
   vertex 10.8509512 -10.6514349 0.745361209
   vertex 10.5657206 -10.6514349 -0.286087573
   vertex 11.0212755 -10.6514349 -0.370155364
  endloop
 endfacet
facet normal 0 -1 0
  outer loop
   vertex 10.3874846 -10.6514349 0.486179024
   vertex 10.1395512 -10.6514349 0.22653766
   vertex 10.2530184 -10.6514349 -0.170905694
  endloop
 endfacet
facet normal 0 -1 -0
  outer loop
   vertex 10.3874846 -10.6514349 0.486179024
   vertex 10.2530184 -10.6514349 -0.170905694
   vertex 10.5657206 -10.6514349 -0.286087573
  endloop
 endfacet
facet normal 0 -1 -0
  outer loop
   vertex 10.1395512 -10.6514349 0.22653766
   vertex 10.1020699 -10.6514349 0
   vertex 10.2530184 -10.6514349 -0.170905694
  endloop
 endfacet
endsolid MATLAB_1
