solid MATLAB_1
facet normal 0.160198212 -0.000466621423 0.987084746
  outer loop
   vertex 25.0004196 -13 0.0188999996
   vertex 24.9083652 -13 0.0338400006
   vertex 25.0001392 -39.75 0.00630000001
  endloop
 endfacet
facet normal 0 1 0
  outer loop
   vertex 25.0004196 -13 0.0188999996
   vertex 24.9995804 -13 -0.0188999996
   vertex 24.9083652 -13 0.0338400006
  endloop
 endfacet
facet normal 0.999753177 8.85189135e-17 -0.0222167373
  outer loop
   vertex 25.0004196 -13 0.0188999996
   vertex 25.0001392 -39.75 0.00630000001
   vertex 24.9995804 -13 -0.0188999996
  endloop
 endfacet
facet normal 0.158222467 -0.000471402222 0.987403393
  outer loop
   vertex 24.9083652 -13 0.0338400006
   vertex 24.6344643 -13 0.07773
   vertex 24.8781548 -39.75 0.0259099994
  endloop
 endfacet
facet normal 0 1 0
  outer loop
   vertex 24.9083652 -13 0.0338400006
   vertex 24.9069557 -13 -0.0297599994
   vertex 24.6344643 -13 0.07773
  endloop
 endfacet
facet normal 0 1 0
  outer loop
   vertex 24.9083652 -13 0.0338400006
   vertex 24.9995804 -13 -0.0188999996
   vertex 24.9069557 -13 -0.0297599994
  endloop
 endfacet
facet normal 0.160198212 -0.000466621423 0.987084746
  outer loop
   vertex 24.9083652 -13 0.0338400006
   vertex 24.9694557 -39.75 0.0112800002
   vertex 25.0001392 -39.75 0.00630000001
  endloop
 endfacet
facet normal 0.158222467 -0.000471402222 0.987403393
  outer loop
   vertex 24.9083652 -13 0.0338400006
   vertex 24.8781548 -39.75 0.0259099994
   vertex 24.9694557 -39.75 0.0112800002
  endloop
 endfacet
facet normal 0.15435572 -0.00050781318 0.988015234
  outer loop
   vertex 24.6344643 -13 0.07773
   vertex 24.1854095 -13 0.147884995
   vertex 24.7284698 -39.75 0.0492950007
  endloop
 endfacet
facet normal 0 1 0
  outer loop
   vertex 24.6344643 -13 0.07773
   vertex 24.1796799 -13 -0.111780003
   vertex 24.1854095 -13 0.147884995
  endloop
 endfacet
facet normal 0 1 0
  outer loop
   vertex 24.6344643 -13 0.07773
   vertex 24.6313896 -13 -0.0615149997
   vertex 24.1796799 -13 -0.111780003
  endloop
 endfacet
facet normal 0 1 0
  outer loop
   vertex 24.6344643 -13 0.07773
   vertex 24.9069557 -13 -0.0297599994
   vertex 24.6313896 -13 -0.0615149997
  endloop
 endfacet
facet normal 0.15435572 -0.00050781318 0.988015234
  outer loop
   vertex 24.6344643 -13 0.07773
   vertex 24.7284698 -39.75 0.0492950007
   vertex 24.8781548 -39.75 0.0259099994
  endloop
 endfacet
facet normal 0.149033561 -0.000618870254 0.988831937
  outer loop
   vertex 24.1854095 -13 0.147884995
   vertex 23.5722408 -13 0.2403
   vertex 24.7284698 -39.75 0.0492950007
  endloop
 endfacet
facet normal 0 1 0
  outer loop
   vertex 24.1854095 -13 0.147884995
   vertex 23.563015 -13 -0.177029997
   vertex 23.5722408 -13 0.2403
  endloop
 endfacet
facet normal 0 1 0
  outer loop
   vertex 24.1854095 -13 0.147884995
   vertex 24.1796799 -13 -0.111780003
   vertex 23.563015 -13 -0.177029997
  endloop
 endfacet
facet normal 0.142492846 -0.000857377541 0.989795446
  outer loop
   vertex 23.5722408 -13 0.2403
   vertex 22.8099556 -13 0.350039989
   vertex 24.5240803 -39.75 0.0800999999
  endloop
 endfacet
facet normal 0 1 0
  outer loop
   vertex 23.5722408 -13 0.2403
   vertex 23.563015 -13 -0.177029997
   vertex 22.8099556 -13 0.350039989
  endloop
 endfacet
facet normal 0.149033561 -0.000618870254 0.988831937
  outer loop
   vertex 23.5722408 -13 0.2403
   vertex 24.5240803 -39.75 0.0800999999
   vertex 24.7284698 -39.75 0.0492950007
  endloop
 endfacet
facet normal 0.135096744 -0.00127009919 0.990831614
  outer loop
   vertex 22.8099556 -13 0.350039989
   vertex 21.917305 -13 0.471749991
   vertex 23.972435 -39.75 0.157250002
  endloop
 endfacet
facet normal 0 1 0
  outer loop
   vertex 22.8099556 -13 0.350039989
   vertex 22.7966347 -13 -0.253019989
   vertex 21.917305 -13 0.471749991
  endloop
 endfacet
facet normal 0 1 0
  outer loop
   vertex 22.8099556 -13 0.350039989
   vertex 23.563015 -13 -0.177029997
   vertex 22.7966347 -13 -0.253019989
  endloop
 endfacet
facet normal 0.142492846 -0.000857377541 0.989795446
  outer loop
   vertex 22.8099556 -13 0.350039989
   vertex 24.2699852 -39.75 0.116680004
   vertex 24.5240803 -39.75 0.0800999999
  endloop
 endfacet
facet normal 0.135096744 -0.00127009919 0.990831614
  outer loop
   vertex 22.8099556 -13 0.350039989
   vertex 23.972435 -39.75 0.157250002
   vertex 24.2699852 -39.75 0.116680004
  endloop
 endfacet
facet normal 0.126818031 -0.0019189762 0.991924167
  outer loop
   vertex 21.917305 -13 0.471749991
   vertex 20.9161758 -13 0.599744976
   vertex 23.972435 -39.75 0.157250002
  endloop
 endfacet
facet normal 0 1 0
  outer loop
   vertex 21.917305 -13 0.471749991
   vertex 20.8936749 -13 -0.418875009
   vertex 20.9161758 -13 0.599744976
  endloop
 endfacet
facet normal 0 1 0
  outer loop
   vertex 21.917305 -13 0.471749991
   vertex 21.8994846 -13 -0.335204989
   vertex 20.8936749 -13 -0.418875009
  endloop
 endfacet
facet normal 0 1 0
  outer loop
   vertex 21.917305 -13 0.471749991
   vertex 22.7966347 -13 -0.253019989
   vertex 21.8994846 -13 -0.335204989
  endloop
 endfacet
facet normal 0.117439762 -0.00289068674 0.993075788
  outer loop
   vertex 20.9161758 -13 0.599744976
   vertex 19.8311806 -13 0.728055
   vertex 23.6387253 -39.75 0.199915007
  endloop
 endfacet
facet normal 0 1 0
  outer loop
   vertex 20.9161758 -13 0.599744976
   vertex 20.8936749 -13 -0.418875009
   vertex 19.8311806 -13 0.728055
  endloop
 endfacet
facet normal 0.126818031 -0.0019189762 0.991924167
  outer loop
   vertex 20.9161758 -13 0.599744976
   vertex 23.6387253 -39.75 0.199915007
   vertex 23.972435 -39.75 0.157250002
  endloop
 endfacet
facet normal 0.106405333 -0.00433457503 0.994313419
  outer loop
   vertex 19.8311806 -13 0.728055
   vertex 18.6889458 -13 0.85029
   vertex 22.8963146 -39.75 0.28343001
  endloop
 endfacet
facet normal 0 1 0
  outer loop
   vertex 19.8311806 -13 0.728055
   vertex 18.6575642 -13 -0.570855021
   vertex 18.6889458 -13 0.85029
  endloop
 endfacet
facet normal 0 1 0
  outer loop
   vertex 19.8311806 -13 0.728055
   vertex 19.8040752 -13 -0.499170005
   vertex 18.6575642 -13 -0.570855021
  endloop
 endfacet
facet normal 0 1 0
  outer loop
   vertex 19.8311806 -13 0.728055
   vertex 20.8936749 -13 -0.418875009
   vertex 19.8040752 -13 -0.499170005
  endloop
 endfacet
facet normal 0.117439762 -0.00289068674 0.993075788
  outer loop
   vertex 19.8311806 -13 0.728055
   vertex 23.2770596 -39.75 0.242685005
   vertex 23.6387253 -39.75 0.199915007
  endloop
 endfacet
facet normal 0.106405333 -0.00433457503 0.994313419
  outer loop
   vertex 19.8311806 -13 0.728055
   vertex 22.8963146 -39.75 0.28343001
   vertex 23.2770596 -39.75 0.242685005
  endloop
 endfacet
facet normal 0.0928545222 -0.00649441732 0.995658517
  outer loop
   vertex 18.6889458 -13 0.85029
   vertex 17.5175343 -13 0.959535003
   vertex 22.8963146 -39.75 0.28343001
  endloop
 endfacet
facet normal 0 1 0
  outer loop
   vertex 18.6889458 -13 0.85029
   vertex 17.4824657 -13 -0.628274977
   vertex 17.5175343 -13 0.959535003
  endloop
 endfacet
facet normal 0 1 0
  outer loop
   vertex 18.6889458 -13 0.85029
   vertex 18.6575642 -13 -0.570855021
   vertex 17.4824657 -13 -0.628274977
  endloop
 endfacet
facet normal 0.0757344291 -0.00972096063 0.997080624
  outer loop
   vertex 17.5175343 -13 0.959535003
   vertex 16.3456745 -13 1.048545
   vertex 22.5058441 -39.75 0.319844991
  endloop
 endfacet
facet normal 0 1 0
  outer loop
   vertex 17.5175343 -13 0.959535003
   vertex 17.4824657 -13 -0.628274977
   vertex 16.3456745 -13 1.048545
  endloop
 endfacet
facet normal 0.0928545222 -0.00649441732 0.995658517
  outer loop
   vertex 17.5175343 -13 0.959535003
   vertex 22.5058441 -39.75 0.319844991
   vertex 22.8963146 -39.75 0.28343001
  endloop
 endfacet
facet normal 0.0538393706 -0.0144790215 0.998444617
  outer loop
   vertex 16.3456745 -13 1.048545
   vertex 15.2021046 -13 1.11020994
   vertex 21.7340355 -39.75 0.37007001
  endloop
 endfacet
facet normal 0 1 0
  outer loop
   vertex 16.3456745 -13 1.048545
   vertex 16.3078156 -13 -0.665475011
   vertex 15.2021046 -13 1.11020994
  endloop
 endfacet
facet normal 0 1 0
  outer loop
   vertex 16.3456745 -13 1.048545
   vertex 17.4824657 -13 -0.628274977
   vertex 16.3078156 -13 -0.665475011
  endloop
 endfacet
facet normal 0.0757344291 -0.00972096063 0.997080624
  outer loop
   vertex 16.3456745 -13 1.048545
   vertex 22.1152248 -39.75 0.349514991
   vertex 22.5058441 -39.75 0.319844991
  endloop
 endfacet
facet normal 0.0538393706 -0.0144790215 0.998444617
  outer loop
   vertex 16.3456745 -13 1.048545
   vertex 21.7340355 -39.75 0.37007001
   vertex 22.1152248 -39.75 0.349514991
  endloop
 endfacet
facet normal 0.0258405264 -0.0213433895 0.999438226
  outer loop
   vertex 15.2021046 -13 1.11020994
   vertex 14.1148901 -13 1.13831997
   vertex 21.7340355 -39.75 0.37007001
  endloop
 endfacet
facet normal 0 1 0
  outer loop
   vertex 15.2021046 -13 1.11020994
   vertex 15.1626396 -13 -0.676590025
   vertex 14.1148901 -13 1.13831997
  endloop
 endfacet
facet normal 0 1 0
  outer loop
   vertex 15.2021046 -13 1.11020994
   vertex 16.3078156 -13 -0.665475011
   vertex 15.1626396 -13 -0.676590025
  endloop
 endfacet
facet normal -0.00979405176 -0.0310112704 0.999471068
  outer loop
   vertex 14.1148901 -13 1.13831997
   vertex 13.1107302 -13 1.12847996
   vertex 21.3716297 -39.75 0.37944001
  endloop
 endfacet
facet normal 0 1 0
  outer loop
   vertex 14.1148901 -13 1.13831997
   vertex 14.0752449 -13 -0.656684995
   vertex 13.1107302 -13 1.12847996
  endloop
 endfacet
facet normal 0 1 0
  outer loop
   vertex 14.1148901 -13 1.13831997
   vertex 15.1626396 -13 -0.676590025
   vertex 14.0752449 -13 -0.656684995
  endloop
 endfacet
facet normal 0.0258405264 -0.0213433895 0.999438226
  outer loop
   vertex 14.1148901 -13 1.13831997
   vertex 21.3716297 -39.75 0.37944001
   vertex 21.7340355 -39.75 0.37007001
  endloop
 endfacet
facet normal -0.0614925772 -0.0462613255 0.997034907
  outer loop
   vertex 13.1107302 -13 1.12847996
   vertex 12.1943197 -13 1.07195997
   vertex 21.0369091 -39.75 0.376159996
  endloop
 endfacet
facet normal 0 1 0
  outer loop
   vertex 13.1107302 -13 1.12847996
   vertex 12.1990747 -13 -0.520529985
   vertex 12.1943197 -13 1.07195997
  endloop
 endfacet
facet normal 0 1 0
  outer loop
   vertex 13.1107302 -13 1.12847996
   vertex 13.0724955 -13 -0.602519989
   vertex 12.1990747 -13 -0.520529985
  endloop
 endfacet
facet normal 0 1 0
  outer loop
   vertex 13.1107302 -13 1.12847996
   vertex 14.0752449 -13 -0.656684995
   vertex 13.0724955 -13 -0.602519989
  endloop
 endfacet
facet normal -0.00979405176 -0.0310112704 0.999471068
  outer loop
   vertex 13.1107302 -13 1.12847996
   vertex 21.0369091 -39.75 0.376159996
   vertex 21.3716297 -39.75 0.37944001
  endloop
 endfacet
facet normal -0.160577625 -0.0775348395 0.983973145
  outer loop
   vertex 12.1943197 -13 1.07195997
   vertex 11.384635 -13 0.939824998
   vertex 20.7314396 -39.75 0.357320011
  endloop
 endfacet
facet normal 0 1 0
  outer loop
   vertex 12.1943197 -13 1.07195997
   vertex 11.4801102 -13 -0.438344985
   vertex 11.384635 -13 0.939824998
  endloop
 endfacet
facet normal 0 1 0
  outer loop
   vertex 12.1943197 -13 1.07195997
   vertex 12.1990747 -13 -0.520529985
   vertex 11.4801102 -13 -0.438344985
  endloop
 endfacet
facet normal -0.0614925772 -0.0462613255 0.997034907
  outer loop
   vertex 12.1943197 -13 1.07195997
   vertex 20.7314396 -39.75 0.357320011
   vertex 21.0369091 -39.75 0.376159996
  endloop
 endfacet
facet normal -0.303806037 -0.125210389 0.944470346
  outer loop
   vertex 11.384635 -13 0.939824998
   vertex 10.7339802 -13 0.730530024
   vertex 20.2446594 -39.75 0.243509993
  endloop
 endfacet
facet normal 0 1 0
  outer loop
   vertex 11.384635 -13 0.939824998
   vertex 10.9009151 -13 -0.362789989
   vertex 10.7339802 -13 0.730530024
  endloop
 endfacet
facet normal 0 1 0
  outer loop
   vertex 11.384635 -13 0.939824998
   vertex 11.4801102 -13 -0.438344985
   vertex 10.9009151 -13 -0.362789989
  endloop
 endfacet
facet normal -0.160577625 -0.0775348395 0.983973145
  outer loop
   vertex 11.384635 -13 0.939824998
   vertex 20.4615459 -39.75 0.313275009
   vertex 20.7314396 -39.75 0.357320011
  endloop
 endfacet
facet normal -0.303806037 -0.125210389 0.944470346
  outer loop
   vertex 11.384635 -13 0.939824998
   vertex 20.2446594 -39.75 0.243509993
   vertex 20.4615459 -39.75 0.313275009
  endloop
 endfacet
facet normal -0.479560196 -0.186115324 0.857544839
  outer loop
   vertex 10.7339802 -13 0.730530024
   vertex 10.2797346 -13 0.476505011
   vertex 20.2446594 -39.75 0.243509993
  endloop
 endfacet
facet normal 0 1 0
  outer loop
   vertex 10.7339802 -13 0.730530024
   vertex 10.4544249 -13 -0.280395001
   vertex 10.2797346 -13 0.476505011
  endloop
 endfacet
facet normal 0 1 0
  outer loop
   vertex 10.7339802 -13 0.730530024
   vertex 10.9009151 -13 -0.362789989
   vertex 10.4544249 -13 -0.280395001
  endloop
 endfacet
facet normal -0.697599947 -0.26383245 0.666143179
  outer loop
   vertex 10.2797346 -13 0.476505011
   vertex 10.0367346 -13 0.222029999
   vertex 20.0932446 -39.75 0.158834994
  endloop
 endfacet
facet normal 0 1 0
  outer loop
   vertex 10.2797346 -13 0.476505011
   vertex 10.1479454 -13 -0.167504996
   vertex 10.0367346 -13 0.222029999
  endloop
 endfacet
facet normal 0 1 0
  outer loop
   vertex 10.2797346 -13 0.476505011
   vertex 10.4544249 -13 -0.280395001
   vertex 10.1479454 -13 -0.167504996
  endloop
 endfacet
facet normal -0.479560196 -0.186115324 0.857544839
  outer loop
   vertex 10.2797346 -13 0.476505011
   vertex 20.0932446 -39.75 0.158834994
   vertex 20.2446594 -39.75 0.243509993
  endloop
 endfacet
facet normal -0.925638676 -0.346033126 0.153147489
  outer loop
   vertex 10.0367346 -13 0.222029999
   vertex 10 -13 0
   vertex 20 -39.75 0
  endloop
 endfacet
facet normal 0 1 0
  outer loop
   vertex 10.0367346 -13 0.222029999
   vertex 10.1479454 -13 -0.167504996
   vertex 10 -13 0
  endloop
 endfacet
facet normal -0.697599947 -0.26383245 0.666143179
  outer loop
   vertex 10.0367346 -13 0.222029999
   vertex 20.0122452 -39.75 0.0740099996
   vertex 20.0932446 -39.75 0.158834994
  endloop
 endfacet
facet normal -0.925638676 -0.346033126 0.153147489
  outer loop
   vertex 10.0367346 -13 0.222029999
   vertex 20 -39.75 0
   vertex 20.0122452 -39.75 0.0740099996
  endloop
 endfacet
facet normal -0.721717775 -0.269801021 -0.63744086
  outer loop
   vertex 10 -13 0
   vertex 10.1479454 -13 -0.167504996
   vertex 20 -39.75 0
  endloop
 endfacet
facet normal -0.342675537 -0.130723193 -0.930314422
  outer loop
   vertex 10.1479454 -13 -0.167504996
   vertex 10.4544249 -13 -0.280395001
   vertex 20.0493145 -39.75 -0.0558350012
  endloop
 endfacet
facet normal -0.721717775 -0.269801021 -0.63744086
  outer loop
   vertex 10.1479454 -13 -0.167504996
   vertex 20.0493145 -39.75 -0.0558350012
   vertex 20 -39.75 0
  endloop
 endfacet
facet normal -0.180998087 -0.0724669322 -0.980809987
  outer loop
   vertex 10.4544249 -13 -0.280395001
   vertex 10.9009151 -13 -0.362789989
   vertex 20.1514759 -39.75 -0.0934650004
  endloop
 endfacet
facet normal -0.342675537 -0.130723193 -0.930314422
  outer loop
   vertex 10.4544249 -13 -0.280395001
   vertex 20.1514759 -39.75 -0.0934650004
   vertex 20.0493145 -39.75 -0.0558350012
  endloop
 endfacet
facet normal -0.129161268 -0.0543368533 -0.990133762
  outer loop
   vertex 10.9009151 -13 -0.362789989
   vertex 11.4801102 -13 -0.438344985
   vertex 20.4933701 -39.75 -0.146115005
  endloop
 endfacet
facet normal -0.180998087 -0.0724669322 -0.980809987
  outer loop
   vertex 10.9009151 -13 -0.362789989
   vertex 20.3003044 -39.75 -0.120930001
   vertex 20.1514759 -39.75 -0.0934650004
  endloop
 endfacet
facet normal -0.129161268 -0.0543368533 -0.990133762
  outer loop
   vertex 10.9009151 -13 -0.362789989
   vertex 20.4933701 -39.75 -0.146115005
   vertex 20.3003044 -39.75 -0.120930001
  endloop
 endfacet
facet normal -0.113433793 -0.0490616038 -0.992333472
  outer loop
   vertex 11.4801102 -13 -0.438344985
   vertex 12.1990747 -13 -0.520529985
   vertex 20.4933701 -39.75 -0.146115005
  endloop
 endfacet
facet normal -0.0933762565 -0.0426936187 -0.994715095
  outer loop
   vertex 12.1990747 -13 -0.520529985
   vertex 13.0724955 -13 -0.602519989
   vertex 21.0241642 -39.75 -0.200839996
  endloop
 endfacet
facet normal -0.113433793 -0.0490616038 -0.992333472
  outer loop
   vertex 12.1990747 -13 -0.520529985
   vertex 20.7330246 -39.75 -0.17351
   vertex 20.4933701 -39.75 -0.146115005
  endloop
 endfacet
facet normal -0.0933762565 -0.0426936187 -0.994715095
  outer loop
   vertex 12.1990747 -13 -0.520529985
   vertex 21.0241642 -39.75 -0.200839996
   vertex 20.7330246 -39.75 -0.17351
  endloop
 endfacet
facet normal -0.0539118797 -0.0310127772 -0.998063982
  outer loop
   vertex 13.0724955 -13 -0.602519989
   vertex 14.0752449 -13 -0.656684995
   vertex 21.0241642 -39.75 -0.200839996
  endloop
 endfacet
facet normal -0.0182979815 -0.0213414691 -0.999604762
  outer loop
   vertex 14.0752449 -13 -0.656684995
   vertex 15.1626396 -13 -0.676590025
   vertex 21.3584156 -39.75 -0.218895003
  endloop
 endfacet
facet normal -0.0539118797 -0.0310127772 -0.998063982
  outer loop
   vertex 14.0752449 -13 -0.656684995
   vertex 21.3584156 -39.75 -0.218895003
   vertex 21.0241642 -39.75 -0.200839996
  endloop
 endfacet
facet normal 0.00970446505 -0.0144802714 -0.999848068
  outer loop
   vertex 15.1626396 -13 -0.676590025
   vertex 16.3078156 -13 -0.665475011
   vertex 21.7208805 -39.75 -0.225529999
  endloop
 endfacet
facet normal -0.0182979815 -0.0213414691 -0.999604762
  outer loop
   vertex 15.1626396 -13 -0.676590025
   vertex 21.7208805 -39.75 -0.225529999
   vertex 21.3584156 -39.75 -0.218895003
  endloop
 endfacet
facet normal 0.0316516422 -0.00971933175 -0.999451697
  outer loop
   vertex 16.3078156 -13 -0.665475011
   vertex 17.4824657 -13 -0.628274977
   vertex 22.1026058 -39.75 -0.221825004
  endloop
 endfacet
facet normal 0.00970446505 -0.0144802714 -0.999848068
  outer loop
   vertex 16.3078156 -13 -0.665475011
   vertex 22.1026058 -39.75 -0.221825004
   vertex 21.7208805 -39.75 -0.225529999
  endloop
 endfacet
facet normal 0.0488046668 -0.00649525877 -0.998787224
  outer loop
   vertex 17.4824657 -13 -0.628274977
   vertex 18.6575642 -13 -0.570855021
   vertex 22.8858547 -39.75 -0.190284997
  endloop
 endfacet
facet normal 0.0316516422 -0.00971933175 -0.999451697
  outer loop
   vertex 17.4824657 -13 -0.628274977
   vertex 22.4941559 -39.75 -0.209425002
   vertex 22.1026058 -39.75 -0.221825004
  endloop
 endfacet
facet normal 0.0488046668 -0.00649525877 -0.998787224
  outer loop
   vertex 17.4824657 -13 -0.628274977
   vertex 22.8858547 -39.75 -0.190284997
   vertex 22.4941559 -39.75 -0.209425002
  endloop
 endfacet
facet normal 0.0624020882 -0.00433534943 -0.998041689
  outer loop
   vertex 18.6575642 -13 -0.570855021
   vertex 19.8040752 -13 -0.499170005
   vertex 23.2680244 -39.75 -0.166390002
  endloop
 endfacet
facet normal 0.0624020882 -0.00433534943 -0.998041689
  outer loop
   vertex 18.6575642 -13 -0.570855021
   vertex 23.2680244 -39.75 -0.166390002
   vertex 22.8858547 -39.75 -0.190284997
  endloop
 endfacet
facet normal 0.0734925941 -0.0028898702 -0.997291565
  outer loop
   vertex 19.8040752 -13 -0.499170005
   vertex 20.8936749 -13 -0.418875009
   vertex 23.2680244 -39.75 -0.166390002
  endloop
 endfacet
facet normal 0.0829001889 -0.00191943359 -0.996555984
  outer loop
   vertex 20.8936749 -13 -0.418875009
   vertex 21.8994846 -13 -0.335204989
   vertex 23.9664955 -39.75 -0.111735001
  endloop
 endfacet
facet normal 0.0734925941 -0.0028898702 -0.997291565
  outer loop
   vertex 20.8936749 -13 -0.418875009
   vertex 23.6312256 -39.75 -0.139624998
   vertex 23.2680244 -39.75 -0.166390002
  endloop
 endfacet
facet normal 0.0829001889 -0.00191943359 -0.996555984
  outer loop
   vertex 20.8936749 -13 -0.418875009
   vertex 23.9664955 -39.75 -0.111735001
   vertex 23.6312256 -39.75 -0.139624998
  endloop
 endfacet
facet normal 0.0912247077 -0.00127011712 -0.995829523
  outer loop
   vertex 21.8994846 -13 -0.335204989
   vertex 22.7966347 -13 -0.253019989
   vertex 23.9664955 -39.75 -0.111735001
  endloop
 endfacet
facet normal 0.098670572 -0.000856770726 -0.99511981
  outer loop
   vertex 22.7966347 -13 -0.253019989
   vertex 23.563015 -13 -0.177029997
   vertex 24.5210056 -39.75 -0.059009999
  endloop
 endfacet
facet normal 0.0912247077 -0.00127011712 -0.995829523
  outer loop
   vertex 22.7966347 -13 -0.253019989
   vertex 24.2655449 -39.75 -0.0843399987
   vertex 23.9664955 -39.75 -0.111735001
  endloop
 endfacet
facet normal 0.098670572 -0.000856770726 -0.99511981
  outer loop
   vertex 22.7966347 -13 -0.253019989
   vertex 24.5210056 -39.75 -0.059009999
   vertex 24.2655449 -39.75 -0.0843399987
  endloop
 endfacet
facet normal 0.105223678 -0.000619124155 -0.994448364
  outer loop
   vertex 23.563015 -13 -0.177029997
   vertex 24.1796799 -13 -0.111780003
   vertex 24.5210056 -39.75 -0.059009999
  endloop
 endfacet
facet normal 0.110594518 -0.00050769822 -0.99386549
  outer loop
   vertex 24.1796799 -13 -0.111780003
   vertex 24.6313896 -13 -0.0615149997
   vertex 24.8771305 -39.75 -0.0205049999
  endloop
 endfacet
facet normal 0.105223678 -0.000619124155 -0.994448364
  outer loop
   vertex 24.1796799 -13 -0.111780003
   vertex 24.7265606 -39.75 -0.0372599997
   vertex 24.5210056 -39.75 -0.059009999
  endloop
 endfacet
facet normal 0.110594518 -0.00050769822 -0.99386549
  outer loop
   vertex 24.1796799 -13 -0.111780003
   vertex 24.8771305 -39.75 -0.0205049999
   vertex 24.7265606 -39.75 -0.0372599997
  endloop
 endfacet
facet normal 0.114478365 -0.000471344742 -0.993425608
  outer loop
   vertex 24.6313896 -13 -0.0615149997
   vertex 24.9069557 -13 -0.0297599994
   vertex 24.8771305 -39.75 -0.0205049999
  endloop
 endfacet
facet normal 0.116449274 -0.000466604513 -0.993196547
  outer loop
   vertex 24.9069557 -13 -0.0297599994
   vertex 24.9995804 -13 -0.0188999996
   vertex 24.9689846 -39.75 -0.0099200001
  endloop
 endfacet
facet normal 0.114478365 -0.000471344742 -0.993425608
  outer loop
   vertex 24.9069557 -13 -0.0297599994
   vertex 24.9689846 -39.75 -0.0099200001
   vertex 24.8771305 -39.75 -0.0205049999
  endloop
 endfacet
facet normal 0.999753177 -2.6555674e-16 -0.0222167373
  outer loop
   vertex 24.9995804 -13 -0.0188999996
   vertex 25.0001392 -39.75 0.00630000001
   vertex 24.9998608 -39.75 -0.00630000001
  endloop
 endfacet
facet normal 0.116449274 -0.000466604513 -0.993196547
  outer loop
   vertex 24.9995804 -13 -0.0188999996
   vertex 24.9998608 -39.75 -0.00630000001
   vertex 24.9689846 -39.75 -0.0099200001
  endloop
 endfacet
facet normal -0 -1 0
  outer loop
   vertex 25.0001392 -39.75 0.00630000001
   vertex 24.9694557 -39.75 0.0112800002
   vertex 24.9998608 -39.75 -0.00630000001
  endloop
 endfacet
facet normal -0 -1 0
  outer loop
   vertex 24.9694557 -39.75 0.0112800002
   vertex 24.8781548 -39.75 0.0259099994
   vertex 24.9689846 -39.75 -0.0099200001
  endloop
 endfacet
facet normal 0 -1 -0
  outer loop
   vertex 24.9694557 -39.75 0.0112800002
   vertex 24.9689846 -39.75 -0.0099200001
   vertex 24.9998608 -39.75 -0.00630000001
  endloop
 endfacet
facet normal -0 -1 0
  outer loop
   vertex 24.8781548 -39.75 0.0259099994
   vertex 24.7284698 -39.75 0.0492950007
   vertex 24.7265606 -39.75 -0.0372599997
  endloop
 endfacet
facet normal 0 -1 0
  outer loop
   vertex 24.8781548 -39.75 0.0259099994
   vertex 24.7265606 -39.75 -0.0372599997
   vertex 24.8771305 -39.75 -0.0205049999
  endloop
 endfacet
facet normal 0 -1 -0
  outer loop
   vertex 24.8781548 -39.75 0.0259099994
   vertex 24.8771305 -39.75 -0.0205049999
   vertex 24.9689846 -39.75 -0.0099200001
  endloop
 endfacet
facet normal -0 -1 0
  outer loop
   vertex 24.7284698 -39.75 0.0492950007
   vertex 24.5240803 -39.75 0.0800999999
   vertex 24.5210056 -39.75 -0.059009999
  endloop
 endfacet
facet normal 0 -1 0
  outer loop
   vertex 24.7284698 -39.75 0.0492950007
   vertex 24.5210056 -39.75 -0.059009999
   vertex 24.7265606 -39.75 -0.0372599997
  endloop
 endfacet
facet normal -0 -1 0
  outer loop
   vertex 24.5240803 -39.75 0.0800999999
   vertex 24.2699852 -39.75 0.116680004
   vertex 24.5210056 -39.75 -0.059009999
  endloop
 endfacet
facet normal -0 -1 0
  outer loop
   vertex 24.2699852 -39.75 0.116680004
   vertex 23.972435 -39.75 0.157250002
   vertex 24.2655449 -39.75 -0.0843399987
  endloop
 endfacet
facet normal 0 -1 -0
  outer loop
   vertex 24.2699852 -39.75 0.116680004
   vertex 24.2655449 -39.75 -0.0843399987
   vertex 24.5210056 -39.75 -0.059009999
  endloop
 endfacet
facet normal -0 -1 0
  outer loop
   vertex 23.972435 -39.75 0.157250002
   vertex 23.6387253 -39.75 0.199915007
   vertex 23.6312256 -39.75 -0.139624998
  endloop
 endfacet
facet normal 0 -1 0
  outer loop
   vertex 23.972435 -39.75 0.157250002
   vertex 23.6312256 -39.75 -0.139624998
   vertex 23.9664955 -39.75 -0.111735001
  endloop
 endfacet
facet normal 0 -1 -0
  outer loop
   vertex 23.972435 -39.75 0.157250002
   vertex 23.9664955 -39.75 -0.111735001
   vertex 24.2655449 -39.75 -0.0843399987
  endloop
 endfacet
facet normal -0 -1 0
  outer loop
   vertex 23.6387253 -39.75 0.199915007
   vertex 23.2770596 -39.75 0.242685005
   vertex 23.6312256 -39.75 -0.139624998
  endloop
 endfacet
facet normal -0 -1 0
  outer loop
   vertex 23.2770596 -39.75 0.242685005
   vertex 22.8963146 -39.75 0.28343001
   vertex 22.8858547 -39.75 -0.190284997
  endloop
 endfacet
facet normal 0 -1 0
  outer loop
   vertex 23.2770596 -39.75 0.242685005
   vertex 22.8858547 -39.75 -0.190284997
   vertex 23.2680244 -39.75 -0.166390002
  endloop
 endfacet
facet normal 0 -1 -0
  outer loop
   vertex 23.2770596 -39.75 0.242685005
   vertex 23.2680244 -39.75 -0.166390002
   vertex 23.6312256 -39.75 -0.139624998
  endloop
 endfacet
facet normal -0 -1 0
  outer loop
   vertex 22.8963146 -39.75 0.28343001
   vertex 22.5058441 -39.75 0.319844991
   vertex 22.4941559 -39.75 -0.209425002
  endloop
 endfacet
facet normal 0 -1 0
  outer loop
   vertex 22.8963146 -39.75 0.28343001
   vertex 22.4941559 -39.75 -0.209425002
   vertex 22.8858547 -39.75 -0.190284997
  endloop
 endfacet
facet normal -0 -1 0
  outer loop
   vertex 22.5058441 -39.75 0.319844991
   vertex 22.1152248 -39.75 0.349514991
   vertex 22.4941559 -39.75 -0.209425002
  endloop
 endfacet
facet normal -0 -1 0
  outer loop
   vertex 22.1152248 -39.75 0.349514991
   vertex 21.7340355 -39.75 0.37007001
   vertex 22.1026058 -39.75 -0.221825004
  endloop
 endfacet
facet normal 0 -1 -0
  outer loop
   vertex 22.1152248 -39.75 0.349514991
   vertex 22.1026058 -39.75 -0.221825004
   vertex 22.4941559 -39.75 -0.209425002
  endloop
 endfacet
facet normal -0 -1 0
  outer loop
   vertex 21.7340355 -39.75 0.37007001
   vertex 21.3716297 -39.75 0.37944001
   vertex 21.7208805 -39.75 -0.225529999
  endloop
 endfacet
facet normal 0 -1 -0
  outer loop
   vertex 21.7340355 -39.75 0.37007001
   vertex 21.7208805 -39.75 -0.225529999
   vertex 22.1026058 -39.75 -0.221825004
  endloop
 endfacet
facet normal 0 -1 0
  outer loop
   vertex 21.3716297 -39.75 0.37944001
   vertex 21.0369091 -39.75 0.376159996
   vertex 21.3584156 -39.75 -0.218895003
  endloop
 endfacet
facet normal 0 -1 -0
  outer loop
   vertex 21.3716297 -39.75 0.37944001
   vertex 21.3584156 -39.75 -0.218895003
   vertex 21.7208805 -39.75 -0.225529999
  endloop
 endfacet
facet normal 0 -1 0
  outer loop
   vertex 21.0369091 -39.75 0.376159996
   vertex 20.7314396 -39.75 0.357320011
   vertex 20.7330246 -39.75 -0.17351
  endloop
 endfacet
facet normal 0 -1 0
  outer loop
   vertex 21.0369091 -39.75 0.376159996
   vertex 20.7330246 -39.75 -0.17351
   vertex 21.0241642 -39.75 -0.200839996
  endloop
 endfacet
facet normal 0 -1 -0
  outer loop
   vertex 21.0369091 -39.75 0.376159996
   vertex 21.0241642 -39.75 -0.200839996
   vertex 21.3584156 -39.75 -0.218895003
  endloop
 endfacet
facet normal 0 -1 0
  outer loop
   vertex 20.7314396 -39.75 0.357320011
   vertex 20.4615459 -39.75 0.313275009
   vertex 20.4933701 -39.75 -0.146115005
  endloop
 endfacet
facet normal 0 -1 -0
  outer loop
   vertex 20.7314396 -39.75 0.357320011
   vertex 20.4933701 -39.75 -0.146115005
   vertex 20.7330246 -39.75 -0.17351
  endloop
 endfacet
facet normal 0 -1 0
  outer loop
   vertex 20.4615459 -39.75 0.313275009
   vertex 20.2446594 -39.75 0.243509993
   vertex 20.3003044 -39.75 -0.120930001
  endloop
 endfacet
facet normal 0 -1 -0
  outer loop
   vertex 20.4615459 -39.75 0.313275009
   vertex 20.3003044 -39.75 -0.120930001
   vertex 20.4933701 -39.75 -0.146115005
  endloop
 endfacet
facet normal 0 -1 0
  outer loop
   vertex 20.2446594 -39.75 0.243509993
   vertex 20.0932446 -39.75 0.158834994
   vertex 20.1514759 -39.75 -0.0934650004
  endloop
 endfacet
facet normal 0 -1 -0
  outer loop
   vertex 20.2446594 -39.75 0.243509993
   vertex 20.1514759 -39.75 -0.0934650004
   vertex 20.3003044 -39.75 -0.120930001
  endloop
 endfacet
facet normal 0 -1 0
  outer loop
   vertex 20.0932446 -39.75 0.158834994
   vertex 20.0122452 -39.75 0.0740099996
   vertex 20.0493145 -39.75 -0.0558350012
  endloop
 endfacet
facet normal 0 -1 -0
  outer loop
   vertex 20.0932446 -39.75 0.158834994
   vertex 20.0493145 -39.75 -0.0558350012
   vertex 20.1514759 -39.75 -0.0934650004
  endloop
 endfacet
facet normal 0 -1 -0
  outer loop
   vertex 20.0122452 -39.75 0.0740099996
   vertex 20 -39.75 0
   vertex 20.0493145 -39.75 -0.0558350012
  endloop
 endfacet
endsolid MATLAB_1
