solid MATLAB_1
facet normal 0.160158232 0.0223432947 0.98683846
  outer loop
   vertex 25.4070282 -10.6514349 0.0192837082
   vertex 25.3131046 -10.6514349 0.0345270187
   vertex 29.5382118 -39.9210434 0.0115180053
  endloop
 endfacet
facet normal 0 1 0
  outer loop
   vertex 25.4070282 -10.6514349 0.0192837082
   vertex 25.4061718 -10.6514349 -0.0192837082
   vertex 25.3131046 -10.6514349 0.0345270187
  endloop
 endfacet
facet normal 0.989797711 0.140771642 -0.0219955053
  outer loop
   vertex 25.4070282 -10.6514349 0.0192837082
   vertex 29.5695438 -39.9210434 0.00643292814
   vertex 29.5692577 -39.9210434 -0.00643292814
  endloop
 endfacet
facet normal 0.160158232 0.0223432947 0.98683846
  outer loop
   vertex 25.4070282 -10.6514349 0.0192837082
   vertex 29.5382118 -39.9210434 0.0115180053
   vertex 29.5695438 -39.9210434 0.00643292814
  endloop
 endfacet
facet normal 0.989797711 0.140771642 -0.0219955053
  outer loop
   vertex 25.4070282 -10.6514349 0.0192837082
   vertex 29.5692577 -39.9210434 -0.00643292814
   vertex 25.4061718 -10.6514349 -0.0192837082
  endloop
 endfacet
facet normal 0.158183992 0.0220580548 0.987163246
  outer loop
   vertex 25.3131046 -10.6514349 0.0345270187
   vertex 25.0336437 -10.6514349 0.0793080777
   vertex 29.5382118 -39.9210434 0.0115180053
  endloop
 endfacet
facet normal 0 1 0
  outer loop
   vertex 25.3131046 -10.6514349 0.0345270187
   vertex 25.3116665 -10.6514349 -0.0303641874
   vertex 25.0336437 -10.6514349 0.0793080777
  endloop
 endfacet
facet normal 0 1 0
  outer loop
   vertex 25.3131046 -10.6514349 0.0345270187
   vertex 25.4061718 -10.6514349 -0.0192837082
   vertex 25.3116665 -10.6514349 -0.0303641874
  endloop
 endfacet
facet normal 0.154320136 0.0214745905 0.987787485
  outer loop
   vertex 25.0336437 -10.6514349 0.0793080777
   vertex 24.5754719 -10.6514349 0.15088737
   vertex 29.2921429 -39.9210434 0.050335113
  endloop
 endfacet
facet normal 0 1 0
  outer loop
   vertex 25.0336437 -10.6514349 0.0793080777
   vertex 24.5696259 -10.6514349 -0.11404936
   vertex 24.5754719 -10.6514349 0.15088737
  endloop
 endfacet
facet normal 0 1 0
  outer loop
   vertex 25.0336437 -10.6514349 0.0793080777
   vertex 25.0305061 -10.6514349 -0.0627638772
   vertex 24.5696259 -10.6514349 -0.11404936
  endloop
 endfacet
facet normal 0 1 0
  outer loop
   vertex 25.0336437 -10.6514349 0.0793080777
   vertex 25.3116665 -10.6514349 -0.0303641874
   vertex 25.0305061 -10.6514349 -0.0627638772
  endloop
 endfacet
facet normal 0.158183992 0.0220580548 0.987163246
  outer loop
   vertex 25.0336437 -10.6514349 0.0793080777
   vertex 29.4449863 -39.9210434 0.0264566932
   vertex 29.5382118 -39.9210434 0.0115180053
  endloop
 endfacet
facet normal 0.154320136 0.0214745905 0.987787485
  outer loop
   vertex 25.0336437 -10.6514349 0.0793080777
   vertex 29.2921429 -39.9210434 0.050335113
   vertex 29.4449863 -39.9210434 0.0264566932
  endloop
 endfacet
facet normal 0.149001911 0.0206147153 0.98862201
  outer loop
   vertex 24.5754719 -10.6514349 0.15088737
   vertex 23.9498539 -10.6514349 0.24517858
   vertex 29.2921429 -39.9210434 0.050335113
  endloop
 endfacet
facet normal 0 1 0
  outer loop
   vertex 24.5754719 -10.6514349 0.15088737
   vertex 23.9404411 -10.6514349 -0.180624068
   vertex 23.9498539 -10.6514349 0.24517858
  endloop
 endfacet
facet normal 0 1 0
  outer loop
   vertex 24.5754719 -10.6514349 0.15088737
   vertex 24.5696259 -10.6514349 -0.11404936
   vertex 23.9404411 -10.6514349 -0.180624068
  endloop
 endfacet
facet normal 0.142465904 0.0194628593 0.989608347
  outer loop
   vertex 23.9498539 -10.6514349 0.24517858
   vertex 23.1720924 -10.6514349 0.357146531
   vertex 28.8239841 -39.9210434 0.119141914
  endloop
 endfacet
facet normal 0 1 0
  outer loop
   vertex 23.9498539 -10.6514349 0.24517858
   vertex 23.9404411 -10.6514349 -0.180624068
   vertex 23.1720924 -10.6514349 0.357146531
  endloop
 endfacet
facet normal 0.149001911 0.0206147153 0.98862201
  outer loop
   vertex 23.9498539 -10.6514349 0.24517858
   vertex 29.0834389 -39.9210434 0.0817900896
   vertex 29.2921429 -39.9210434 0.050335113
  endloop
 endfacet
facet normal 0.142465904 0.0194628593 0.989608347
  outer loop
   vertex 23.9498539 -10.6514349 0.24517858
   vertex 28.8239841 -39.9210434 0.119141914
   vertex 29.0834389 -39.9210434 0.0817900896
  endloop
 endfacet
facet normal 0.135074899 0.0180270337 0.990671396
  outer loop
   vertex 23.1720924 -10.6514349 0.357146531
   vertex 22.2613201 -10.6514349 0.481327474
   vertex 28.8239841 -39.9210434 0.119141914
  endloop
 endfacet
facet normal 0 1 0
  outer loop
   vertex 23.1720924 -10.6514349 0.357146531
   vertex 23.1585026 -10.6514349 -0.258156806
   vertex 22.2613201 -10.6514349 0.481327474
  endloop
 endfacet
facet normal 0 1 0
  outer loop
   vertex 23.1720924 -10.6514349 0.357146531
   vertex 23.9404411 -10.6514349 -0.180624068
   vertex 23.1585026 -10.6514349 -0.258156806
  endloop
 endfacet
facet normal 0.126801521 0.0162455887 0.991795063
  outer loop
   vertex 22.2613201 -10.6514349 0.481327474
   vertex 21.2398663 -10.6514349 0.611921012
   vertex 28.1794033 -39.9210434 0.204133153
  endloop
 endfacet
facet normal 0 1 0
  outer loop
   vertex 22.2613201 -10.6514349 0.481327474
   vertex 21.2169094 -10.6514349 -0.427379012
   vertex 21.2398663 -10.6514349 0.611921012
  endloop
 endfacet
facet normal 0 1 0
  outer loop
   vertex 22.2613201 -10.6514349 0.481327474
   vertex 22.2431393 -10.6514349 -0.342010349
   vertex 21.2169094 -10.6514349 -0.427379012
  endloop
 endfacet
facet normal 0 1 0
  outer loop
   vertex 22.2613201 -10.6514349 0.481327474
   vertex 23.1585026 -10.6514349 -0.258156806
   vertex 22.2431393 -10.6514349 -0.342010349
  endloop
 endfacet
facet normal 0.135074899 0.0180270337 0.990671396
  outer loop
   vertex 22.2613201 -10.6514349 0.481327474
   vertex 28.520155 -39.9210434 0.160567939
   vertex 28.8239841 -39.9210434 0.119141914
  endloop
 endfacet
facet normal 0.126801521 0.0162455887 0.991795063
  outer loop
   vertex 22.2613201 -10.6514349 0.481327474
   vertex 28.1794033 -39.9210434 0.204133153
   vertex 28.520155 -39.9210434 0.160567939
  endloop
 endfacet
facet normal 0.117428735 0.0140068484 0.992982507
  outer loop
   vertex 21.2398663 -10.6514349 0.611921012
   vertex 20.132843 -10.6514349 0.742835999
   vertex 27.8101082 -39.9210434 0.24780558
  endloop
 endfacet
facet normal 0 1 0
  outer loop
   vertex 21.2398663 -10.6514349 0.611921012
   vertex 21.2169094 -10.6514349 -0.427379012
   vertex 20.132843 -10.6514349 0.742835999
  endloop
 endfacet
facet normal 0.117428735 0.0140068484 0.992982507
  outer loop
   vertex 21.2398663 -10.6514349 0.611921012
   vertex 27.8101082 -39.9210434 0.24780558
   vertex 28.1794033 -39.9210434 0.204133153
  endloop
 endfacet
facet normal 0.106399789 0.0110923816 0.994261563
  outer loop
   vertex 20.132843 -10.6514349 0.742835999
   vertex 18.9674187 -10.6514349 0.867552578
   vertex 27.8101082 -39.9210434 0.24780558
  endloop
 endfacet
facet normal 0 1 0
  outer loop
   vertex 20.132843 -10.6514349 0.742835999
   vertex 18.9354019 -10.6514349 -0.582444489
   vertex 18.9674187 -10.6514349 0.867552578
  endloop
 endfacet
facet normal 0 1 0
  outer loop
   vertex 20.132843 -10.6514349 0.742835999
   vertex 20.1051884 -10.6514349 -0.509304166
   vertex 18.9354019 -10.6514349 -0.582444489
  endloop
 endfacet
facet normal 0 1 0
  outer loop
   vertex 20.132843 -10.6514349 0.742835999
   vertex 21.2169094 -10.6514349 -0.427379012
   vertex 20.1051884 -10.6514349 -0.509304166
  endloop
 endfacet
facet normal 0.0928541049 0.00715249078 0.995654047
  outer loop
   vertex 18.9674187 -10.6514349 0.867552578
   vertex 17.7722263 -10.6514349 0.97901547
   vertex 27.4213295 -39.9210434 0.289410293
  endloop
 endfacet
facet normal 0 1 0
  outer loop
   vertex 18.9674187 -10.6514349 0.867552578
   vertex 17.7364445 -10.6514349 -0.641030252
   vertex 17.7722263 -10.6514349 0.97901547
  endloop
 endfacet
facet normal 0 1 0
  outer loop
   vertex 18.9674187 -10.6514349 0.867552578
   vertex 18.9354019 -10.6514349 -0.582444489
   vertex 17.7364445 -10.6514349 -0.641030252
  endloop
 endfacet
facet normal 0.106399789 0.0110923816 0.994261563
  outer loop
   vertex 18.9674187 -10.6514349 0.867552578
   vertex 27.4213295 -39.9210434 0.289410293
   vertex 27.8101082 -39.9210434 0.24780558
  endloop
 endfacet
facet normal 0.0757378936 0.00171025214 0.997126281
  outer loop
   vertex 17.7722263 -10.6514349 0.97901547
   vertex 16.5765743 -10.6514349 1.06983256
   vertex 26.6237583 -39.9210434 0.356889665
  endloop
 endfacet
facet normal 0 1 0
  outer loop
   vertex 17.7722263 -10.6514349 0.97901547
   vertex 17.7364445 -10.6514349 -0.641030252
   vertex 16.5765743 -10.6514349 1.06983256
  endloop
 endfacet
facet normal 0.0928541049 0.00715249078 0.995654047
  outer loop
   vertex 17.7722263 -10.6514349 0.97901547
   vertex 27.0226212 -39.9210434 0.326593637
   vertex 27.4213295 -39.9210434 0.289410293
  endloop
 endfacet
facet normal 0.0757378936 0.00171025214 0.997126281
  outer loop
   vertex 17.7722263 -10.6514349 0.97901547
   vertex 26.6237583 -39.9210434 0.356889665
   vertex 27.0226212 -39.9210434 0.326593637
  endloop
 endfacet
facet normal 0.053844098 -0.0058393334 0.998532295
  outer loop
   vertex 16.5765743 -10.6514349 1.06983256
   vertex 15.4097881 -10.6514349 1.13274956
   vertex 26.6237583 -39.9210434 0.356889665
  endloop
 endfacet
facet normal 0 1 0
  outer loop
   vertex 16.5765743 -10.6514349 1.06983256
   vertex 16.5379467 -10.6514349 -0.678985476
   vertex 15.4097881 -10.6514349 1.13274956
  endloop
 endfacet
facet normal 0 1 0
  outer loop
   vertex 16.5765743 -10.6514349 1.06983256
   vertex 17.7364445 -10.6514349 -0.641030252
   vertex 16.5379467 -10.6514349 -0.678985476
  endloop
 endfacet
facet normal 0.0258430131 -0.0162207782 0.999534428
  outer loop
   vertex 15.4097881 -10.6514349 1.13274956
   vertex 14.3005009 -10.6514349 1.16143024
   vertex 25.8644733 -39.9210434 0.387446076
  endloop
 endfacet
facet normal 0 1 0
  outer loop
   vertex 15.4097881 -10.6514349 1.13274956
   vertex 15.3695221 -10.6514349 -0.690326154
   vertex 14.3005009 -10.6514349 1.16143024
  endloop
 endfacet
facet normal 0 1 0
  outer loop
   vertex 15.4097881 -10.6514349 1.13274956
   vertex 16.5379467 -10.6514349 -0.678985476
   vertex 15.3695221 -10.6514349 -0.690326154
  endloop
 endfacet
facet normal 0.053844098 -0.0058393334 0.998532295
  outer loop
   vertex 15.4097881 -10.6514349 1.13274956
   vertex 26.2345257 -39.9210434 0.377878368
   vertex 26.6237583 -39.9210434 0.356889665
  endloop
 endfacet
facet normal 0.0258430131 -0.0162207782 0.999534428
  outer loop
   vertex 15.4097881 -10.6514349 1.13274956
   vertex 25.8644733 -39.9210434 0.387446076
   vertex 26.2345257 -39.9210434 0.377878368
  endloop
 endfacet
facet normal -0.00979426596 -0.0302994233 0.999492884
  outer loop
   vertex 14.3005009 -10.6514349 1.16143024
   vertex 13.2759542 -10.6514349 1.15139043
   vertex 25.5226917 -39.9210434 0.384096861
  endloop
 endfacet
facet normal 0 1 0
  outer loop
   vertex 14.3005009 -10.6514349 1.16143024
   vertex 14.2600508 -10.6514349 -0.670017004
   vertex 13.2759542 -10.6514349 1.15139043
  endloop
 endfacet
facet normal 0 1 0
  outer loop
   vertex 14.3005009 -10.6514349 1.16143024
   vertex 15.3695221 -10.6514349 -0.690326154
   vertex 14.2600508 -10.6514349 -0.670017004
  endloop
 endfacet
facet normal -0.00979426596 -0.0302994233 0.999492884
  outer loop
   vertex 14.3005009 -10.6514349 1.16143024
   vertex 25.5226917 -39.9210434 0.384096861
   vertex 25.8644733 -39.9210434 0.387446076
  endloop
 endfacet
facet normal -0.0614756718 -0.051851891 0.996760786
  outer loop
   vertex 13.2759542 -10.6514349 1.15139043
   vertex 12.3409395 -10.6514349 1.09372294
   vertex 25.2107754 -39.9210434 0.364859343
  endloop
 endfacet
facet normal 0 1 0
  outer loop
   vertex 13.2759542 -10.6514349 1.15139043
   vertex 12.3457909 -10.6514349 -0.531097829
   vertex 12.3409395 -10.6514349 1.09372294
  endloop
 endfacet
facet normal 0 1 0
  outer loop
   vertex 13.2759542 -10.6514349 1.15139043
   vertex 13.2369432 -10.6514349 -0.614752352
   vertex 12.3457909 -10.6514349 -0.531097829
  endloop
 endfacet
facet normal 0 1 0
  outer loop
   vertex 13.2759542 -10.6514349 1.15139043
   vertex 14.2600508 -10.6514349 -0.670017004
   vertex 13.2369432 -10.6514349 -0.614752352
  endloop
 endfacet
facet normal -0.0614756718 -0.051851891 0.996760786
  outer loop
   vertex 13.2759542 -10.6514349 1.15139043
   vertex 25.2107754 -39.9210434 0.364859343
   vertex 25.5226917 -39.9210434 0.384096861
  endloop
 endfacet
facet normal -0.160334587 -0.0949646011 0.982483864
  outer loop
   vertex 12.3409395 -10.6514349 1.09372294
   vertex 11.5148163 -10.6514349 0.958905339
   vertex 25.2107754 -39.9210434 0.364859343
  endloop
 endfacet
facet normal 0 1 0
  outer loop
   vertex 12.3409395 -10.6514349 1.09372294
   vertex 11.6122293 -10.6514349 -0.447244287
   vertex 11.5148163 -10.6514349 0.958905339
  endloop
 endfacet
facet normal 0 1 0
  outer loop
   vertex 12.3409395 -10.6514349 1.09372294
   vertex 12.3457909 -10.6514349 -0.531097829
   vertex 11.6122293 -10.6514349 -0.447244287
  endloop
 endfacet
facet normal -0.302313894 -0.159132153 0.939831495
  outer loop
   vertex 11.5148163 -10.6514349 0.958905339
   vertex 10.8509512 -10.6514349 0.745361209
   vertex 24.9351864 -39.9210434 0.319885015
  endloop
 endfacet
facet normal 0 1 0
  outer loop
   vertex 11.5148163 -10.6514349 0.958905339
   vertex 11.0212755 -10.6514349 -0.370155364
   vertex 10.8509512 -10.6514349 0.745361209
  endloop
 endfacet
facet normal 0 1 0
  outer loop
   vertex 11.5148163 -10.6514349 0.958905339
   vertex 11.6122293 -10.6514349 -0.447244287
   vertex 11.0212755 -10.6514349 -0.370155364
  endloop
 endfacet
facet normal -0.160334587 -0.0949646011 0.982483864
  outer loop
   vertex 11.5148163 -10.6514349 0.958905339
   vertex 24.9351864 -39.9210434 0.319885015
   vertex 25.2107754 -39.9210434 0.364859343
  endloop
 endfacet
facet normal -0.473959774 -0.238861293 0.847530186
  outer loop
   vertex 10.8509512 -10.6514349 0.745361209
   vertex 10.3874846 -10.6514349 0.486179024
   vertex 24.5591145 -39.9210434 0.162186369
  endloop
 endfacet
facet normal 0 1 0
  outer loop
   vertex 10.8509512 -10.6514349 0.745361209
   vertex 10.5657206 -10.6514349 -0.286087573
   vertex 10.3874846 -10.6514349 0.486179024
  endloop
 endfacet
facet normal 0 1 0
  outer loop
   vertex 10.8509512 -10.6514349 0.745361209
   vertex 11.0212755 -10.6514349 -0.370155364
   vertex 10.5657206 -10.6514349 -0.286087573
  endloop
 endfacet
facet normal -0.302313894 -0.159132153 0.939831495
  outer loop
   vertex 10.8509512 -10.6514349 0.745361209
   vertex 24.7137241 -39.9210434 0.248647988
   vertex 24.9351864 -39.9210434 0.319885015
  endloop
 endfacet
facet normal -0.473959774 -0.238861293 0.847530186
  outer loop
   vertex 10.8509512 -10.6514349 0.745361209
   vertex 24.5591145 -39.9210434 0.162186369
   vertex 24.7137241 -39.9210434 0.248647988
  endloop
 endfacet
facet normal -0.680946648 -0.336895436 0.650240839
  outer loop
   vertex 10.3874846 -10.6514349 0.486179024
   vertex 10.1395512 -10.6514349 0.22653766
   vertex 24.5591145 -39.9210434 0.162186369
  endloop
 endfacet
facet normal 0 1 0
  outer loop
   vertex 10.3874846 -10.6514349 0.486179024
   vertex 10.2530184 -10.6514349 -0.170905694
   vertex 10.1395512 -10.6514349 0.22653766
  endloop
 endfacet
facet normal 0 1 0
  outer loop
   vertex 10.3874846 -10.6514349 0.486179024
   vertex 10.5657206 -10.6514349 -0.286087573
   vertex 10.2530184 -10.6514349 -0.170905694
  endloop
 endfacet
facet normal -0.888008833 -0.435722768 0.146921605
  outer loop
   vertex 10.1395512 -10.6514349 0.22653766
   vertex 10.1020699 -10.6514349 0
   vertex 24.4639034 -39.9210434 0
  endloop
 endfacet
facet normal 0 1 0
  outer loop
   vertex 10.1395512 -10.6514349 0.22653766
   vertex 10.2530184 -10.6514349 -0.170905694
   vertex 10.1020699 -10.6514349 0
  endloop
 endfacet
facet normal -0.680946648 -0.336895436 0.650240839
  outer loop
   vertex 10.1395512 -10.6514349 0.22653766
   vertex 24.4764061 -39.9210434 0.0755715892
   vertex 24.5591145 -39.9210434 0.162186369
  endloop
 endfacet
facet normal -0.888008833 -0.435722768 0.146921605
  outer loop
   vertex 10.1395512 -10.6514349 0.22653766
   vertex 24.4639034 -39.9210434 0
   vertex 24.4764061 -39.9210434 0.0755715892
  endloop
 endfacet
facet normal -0.703449309 -0.34516421 -0.621305704
  outer loop
   vertex 10.1020699 -10.6514349 0
   vertex 10.2530184 -10.6514349 -0.170905694
   vertex 24.4639034 -39.9210434 0
  endloop
 endfacet
facet normal -0.340636045 -0.169568971 -0.924777508
  outer loop
   vertex 10.2530184 -10.6514349 -0.170905694
   vertex 10.5657206 -10.6514349 -0.286087573
   vertex 24.6185741 -39.9210434 -0.0954370871
  endloop
 endfacet
facet normal -0.703449309 -0.34516421 -0.621305704
  outer loop
   vertex 10.2530184 -10.6514349 -0.170905694
   vertex 24.5142574 -39.9210434 -0.0570131019
   vertex 24.4639034 -39.9210434 0
  endloop
 endfacet
facet normal -0.340636045 -0.169568971 -0.924777508
  outer loop
   vertex 10.2530184 -10.6514349 -0.170905694
   vertex 24.6185741 -39.9210434 -0.0954370871
   vertex 24.5142574 -39.9210434 -0.0570131019
  endloop
 endfacet
facet normal -0.180686548 -0.0931283981 -0.979121804
  outer loop
   vertex 10.5657206 -10.6514349 -0.286087573
   vertex 11.0212755 -10.6514349 -0.370155364
   vertex 24.7705441 -39.9210434 -0.123481587
  endloop
 endfacet
facet normal -0.180686548 -0.0931283981 -0.979121804
  outer loop
   vertex 10.5657206 -10.6514349 -0.286087573
   vertex 24.7705441 -39.9210434 -0.123481587
   vertex 24.6185741 -39.9210434 -0.0954370871
  endloop
 endfacet
facet normal -0.129044473 -0.0689550117 -0.989238441
  outer loop
   vertex 11.0212755 -10.6514349 -0.370155364
   vertex 11.6122293 -10.6514349 -0.447244287
   vertex 24.7705441 -39.9210434 -0.123481587
  endloop
 endfacet
facet normal -0.113353334 -0.0618196428 -0.99162966
  outer loop
   vertex 11.6122293 -10.6514349 -0.447244287
   vertex 12.3457909 -10.6514349 -0.531097829
   vertex 25.2123947 -39.9210434 -0.177171007
  endloop
 endfacet
facet normal -0.129044473 -0.0689550117 -0.989238441
  outer loop
   vertex 11.6122293 -10.6514349 -0.447244287
   vertex 24.9676819 -39.9210434 -0.149197981
   vertex 24.7705441 -39.9210434 -0.123481587
  endloop
 endfacet
facet normal -0.113353334 -0.0618196428 -0.99162966
  outer loop
   vertex 11.6122293 -10.6514349 -0.447244287
   vertex 25.2123947 -39.9210434 -0.177171007
   vertex 24.9676819 -39.9210434 -0.149197981
  endloop
 endfacet
facet normal -0.0933298767 -0.0530488789 -0.994220972
  outer loop
   vertex 12.3457909 -10.6514349 -0.531097829
   vertex 13.2369432 -10.6514349 -0.614752352
   vertex 25.2123947 -39.9210434 -0.177171007
  endloop
 endfacet
facet normal -0.0539017469 -0.0365678482 -0.997876465
  outer loop
   vertex 13.2369432 -10.6514349 -0.614752352
   vertex 14.2600508 -10.6514349 -0.670017004
   vertex 25.8509808 -39.9210434 -0.223513618
  endloop
 endfacet
facet normal -0.0933298767 -0.0530488789 -0.994220972
  outer loop
   vertex 13.2369432 -10.6514349 -0.614752352
   vertex 25.5096779 -39.9210434 -0.205077663
   vertex 25.2123947 -39.9210434 -0.177171007
  endloop
 endfacet
facet normal -0.0539017469 -0.0365678482 -0.997876465
  outer loop
   vertex 13.2369432 -10.6514349 -0.614752352
   vertex 25.8509808 -39.9210434 -0.223513618
   vertex 25.5096779 -39.9210434 -0.205077663
  endloop
 endfacet
facet normal -0.0182975177 -0.0224943534 -0.999579489
  outer loop
   vertex 14.2600508 -10.6514349 -0.670017004
   vertex 15.3695221 -10.6514349 -0.690326154
   vertex 25.8509808 -39.9210434 -0.223513618
  endloop
 endfacet
facet normal 0.00970477052 -0.0121173495 -0.999879479
  outer loop
   vertex 15.3695221 -10.6514349 -0.690326154
   vertex 16.5379467 -10.6514349 -0.678985476
   vertex 26.6108723 -39.9210434 -0.226505443
  endloop
 endfacet
facet normal -0.0182975177 -0.0224943534 -0.999579489
  outer loop
   vertex 15.3695221 -10.6514349 -0.690326154
   vertex 26.2210922 -39.9210434 -0.230288625
   vertex 25.8509808 -39.9210434 -0.223513618
  endloop
 endfacet
facet normal 0.00970477052 -0.0121173495 -0.999879479
  outer loop
   vertex 15.3695221 -10.6514349 -0.690326154
   vertex 26.6108723 -39.9210434 -0.226505443
   vertex 26.2210922 -39.9210434 -0.230288625
  endloop
 endfacet
facet normal 0.0316528119 -0.00455804542 -0.999488533
  outer loop
   vertex 16.5379467 -10.6514349 -0.678985476
   vertex 17.7364445 -10.6514349 -0.641030252
   vertex 27.0106831 -39.9210434 -0.213843808
  endloop
 endfacet
facet normal 0.0316528119 -0.00455804542 -0.999488533
  outer loop
   vertex 16.5379467 -10.6514349 -0.678985476
   vertex 27.0106831 -39.9210434 -0.213843808
   vertex 26.6108723 -39.9210434 -0.226505443
  endloop
 endfacet
facet normal 0.0488056764 0.000886869966 -0.998807907
  outer loop
   vertex 17.7364445 -10.6514349 -0.641030252
   vertex 18.9354019 -10.6514349 -0.582444489
   vertex 27.4106483 -39.9210434 -0.194299966
  endloop
 endfacet
facet normal 0.0488056764 0.000886869966 -0.998807907
  outer loop
   vertex 17.7364445 -10.6514349 -0.641030252
   vertex 27.4106483 -39.9210434 -0.194299966
   vertex 27.0106831 -39.9210434 -0.213843808
  endloop
 endfacet
facet normal 0.0624019466 0.00483396882 -0.998039365
  outer loop
   vertex 18.9354019 -10.6514349 -0.582444489
   vertex 20.1051884 -10.6514349 -0.509304166
   vertex 27.4106483 -39.9210434 -0.194299966
  endloop
 endfacet
facet normal 0.0734906867 0.00775844092 -0.997265697
  outer loop
   vertex 20.1051884 -10.6514349 -0.509304166
   vertex 21.2169094 -10.6514349 -0.427379012
   vertex 28.1717453 -39.9210434 -0.142571047
  endloop
 endfacet
facet normal 0.0624019466 0.00483396882 -0.998039365
  outer loop
   vertex 20.1051884 -10.6514349 -0.509304166
   vertex 27.8008823 -39.9210434 -0.16990079
   vertex 27.4106483 -39.9210434 -0.194299966
  endloop
 endfacet
facet normal 0.0734906867 0.00775844092 -0.997265697
  outer loop
   vertex 20.1051884 -10.6514349 -0.509304166
   vertex 28.1717453 -39.9210434 -0.142571047
   vertex 27.8008823 -39.9210434 -0.16990079
  endloop
 endfacet
facet normal 0.0828961954 0.0100006852 -0.996508002
  outer loop
   vertex 21.2169094 -10.6514349 -0.427379012
   vertex 22.2431393 -10.6514349 -0.342010349
   vertex 28.5140896 -39.9210434 -0.114092581
  endloop
 endfacet
facet normal 0.0828961954 0.0100006852 -0.996508002
  outer loop
   vertex 21.2169094 -10.6514349 -0.427379012
   vertex 28.5140896 -39.9210434 -0.114092581
   vertex 28.1717453 -39.9210434 -0.142571047
  endloop
 endfacet
facet normal 0.0912184417 0.011789524 -0.995761096
  outer loop
   vertex 22.2431393 -10.6514349 -0.342010349
   vertex 23.1585026 -10.6514349 -0.258156806
   vertex 28.5140896 -39.9210434 -0.114092581
  endloop
 endfacet
facet normal 0.0986619666 0.0132334335 -0.995033026
  outer loop
   vertex 23.1585026 -10.6514349 -0.258156806
   vertex 23.9404411 -10.6514349 -0.180624068
   vertex 29.0802994 -39.9210434 -0.0602550954
  endloop
 endfacet
facet normal 0.0912184417 0.011789524 -0.995761096
  outer loop
   vertex 23.1585026 -10.6514349 -0.258156806
   vertex 28.8194504 -39.9210434 -0.0861195475
   vertex 28.5140896 -39.9210434 -0.114092581
  endloop
 endfacet
facet normal 0.0986619666 0.0132334335 -0.995033026
  outer loop
   vertex 23.1585026 -10.6514349 -0.258156806
   vertex 29.0802994 -39.9210434 -0.0602550954
   vertex 28.8194504 -39.9210434 -0.0861195475
  endloop
 endfacet
facet normal 0.105212808 0.0143866129 -0.994345665
  outer loop
   vertex 23.9404411 -10.6514349 -0.180624068
   vertex 24.5696259 -10.6514349 -0.11404936
   vertex 29.2901917 -39.9210434 -0.0380461775
  endloop
 endfacet
facet normal 0.105212808 0.0143866129 -0.994345665
  outer loop
   vertex 23.9404411 -10.6514349 -0.180624068
   vertex 29.2901917 -39.9210434 -0.0380461775
   vertex 29.0802994 -39.9210434 -0.0602550954
  endloop
 endfacet
facet normal 0.110581659 0.0152540421 -0.993749976
  outer loop
   vertex 24.5696259 -10.6514349 -0.11404936
   vertex 25.0305061 -10.6514349 -0.0627638772
   vertex 29.4439392 -39.9210434 -0.0209376495
  endloop
 endfacet
facet normal 0.110581659 0.0152540421 -0.993749976
  outer loop
   vertex 24.5696259 -10.6514349 -0.11404936
   vertex 29.4439392 -39.9210434 -0.0209376495
   vertex 29.2901917 -39.9210434 -0.0380461775
  endloop
 endfacet
facet normal 0.114464015 0.0158400852 -0.993301094
  outer loop
   vertex 25.0305061 -10.6514349 -0.0627638772
   vertex 25.3116665 -10.6514349 -0.0303641874
   vertex 29.4439392 -39.9210434 -0.0209376495
  endloop
 endfacet
facet normal 0.116434149 0.016124703 -0.993067503
  outer loop
   vertex 25.3116665 -10.6514349 -0.0303641874
   vertex 25.4061718 -10.6514349 -0.0192837082
   vertex 29.5692577 -39.9210434 -0.00643292814
  endloop
 endfacet
facet normal 0.114464015 0.0158400852 -0.993301094
  outer loop
   vertex 25.3116665 -10.6514349 -0.0303641874
   vertex 29.5377312 -39.9210434 -0.0101293093
   vertex 29.4439392 -39.9210434 -0.0209376495
  endloop
 endfacet
facet normal 0.116434149 0.016124703 -0.993067503
  outer loop
   vertex 25.3116665 -10.6514349 -0.0303641874
   vertex 29.5692577 -39.9210434 -0.00643292814
   vertex 29.5377312 -39.9210434 -0.0101293093
  endloop
 endfacet
facet normal -0 -1 0
  outer loop
   vertex 29.5695438 -39.9210434 0.00643292814
   vertex 29.5382118 -39.9210434 0.0115180053
   vertex 29.5692577 -39.9210434 -0.00643292814
  endloop
 endfacet
facet normal -0 -1 0
  outer loop
   vertex 29.5382118 -39.9210434 0.0115180053
   vertex 29.4449863 -39.9210434 0.0264566932
   vertex 29.5377312 -39.9210434 -0.0101293093
  endloop
 endfacet
facet normal 0 -1 -0
  outer loop
   vertex 29.5382118 -39.9210434 0.0115180053
   vertex 29.5377312 -39.9210434 -0.0101293093
   vertex 29.5692577 -39.9210434 -0.00643292814
  endloop
 endfacet
facet normal -0 -1 0
  outer loop
   vertex 29.4449863 -39.9210434 0.0264566932
   vertex 29.2921429 -39.9210434 0.050335113
   vertex 29.2901917 -39.9210434 -0.0380461775
  endloop
 endfacet
facet normal 0 -1 0
  outer loop
   vertex 29.4449863 -39.9210434 0.0264566932
   vertex 29.2901917 -39.9210434 -0.0380461775
   vertex 29.4439392 -39.9210434 -0.0209376495
  endloop
 endfacet
facet normal 0 -1 -0
  outer loop
   vertex 29.4449863 -39.9210434 0.0264566932
   vertex 29.4439392 -39.9210434 -0.0209376495
   vertex 29.5377312 -39.9210434 -0.0101293093
  endloop
 endfacet
facet normal -0 -1 0
  outer loop
   vertex 29.2921429 -39.9210434 0.050335113
   vertex 29.0834389 -39.9210434 0.0817900896
   vertex 29.0802994 -39.9210434 -0.0602550954
  endloop
 endfacet
facet normal 0 -1 0
  outer loop
   vertex 29.2921429 -39.9210434 0.050335113
   vertex 29.0802994 -39.9210434 -0.0602550954
   vertex 29.2901917 -39.9210434 -0.0380461775
  endloop
 endfacet
facet normal -0 -1 0
  outer loop
   vertex 29.0834389 -39.9210434 0.0817900896
   vertex 28.8239841 -39.9210434 0.119141914
   vertex 29.0802994 -39.9210434 -0.0602550954
  endloop
 endfacet
facet normal -0 -1 0
  outer loop
   vertex 28.8239841 -39.9210434 0.119141914
   vertex 28.520155 -39.9210434 0.160567939
   vertex 28.8194504 -39.9210434 -0.0861195475
  endloop
 endfacet
facet normal 0 -1 -0
  outer loop
   vertex 28.8239841 -39.9210434 0.119141914
   vertex 28.8194504 -39.9210434 -0.0861195475
   vertex 29.0802994 -39.9210434 -0.0602550954
  endloop
 endfacet
facet normal -0 -1 0
  outer loop
   vertex 28.520155 -39.9210434 0.160567939
   vertex 28.1794033 -39.9210434 0.204133153
   vertex 28.1717453 -39.9210434 -0.142571047
  endloop
 endfacet
facet normal 0 -1 0
  outer loop
   vertex 28.520155 -39.9210434 0.160567939
   vertex 28.1717453 -39.9210434 -0.142571047
   vertex 28.5140896 -39.9210434 -0.114092581
  endloop
 endfacet
facet normal 0 -1 -0
  outer loop
   vertex 28.520155 -39.9210434 0.160567939
   vertex 28.5140896 -39.9210434 -0.114092581
   vertex 28.8194504 -39.9210434 -0.0861195475
  endloop
 endfacet
facet normal -0 -1 0
  outer loop
   vertex 28.1794033 -39.9210434 0.204133153
   vertex 27.8101082 -39.9210434 0.24780558
   vertex 28.1717453 -39.9210434 -0.142571047
  endloop
 endfacet
facet normal -0 -1 0
  outer loop
   vertex 27.8101082 -39.9210434 0.24780558
   vertex 27.4213295 -39.9210434 0.289410293
   vertex 27.4106483 -39.9210434 -0.194299966
  endloop
 endfacet
facet normal 0 -1 0
  outer loop
   vertex 27.8101082 -39.9210434 0.24780558
   vertex 27.4106483 -39.9210434 -0.194299966
   vertex 27.8008823 -39.9210434 -0.16990079
  endloop
 endfacet
facet normal 0 -1 -0
  outer loop
   vertex 27.8101082 -39.9210434 0.24780558
   vertex 27.8008823 -39.9210434 -0.16990079
   vertex 28.1717453 -39.9210434 -0.142571047
  endloop
 endfacet
facet normal -0 -1 0
  outer loop
   vertex 27.4213295 -39.9210434 0.289410293
   vertex 27.0226212 -39.9210434 0.326593637
   vertex 27.0106831 -39.9210434 -0.213843808
  endloop
 endfacet
facet normal 0 -1 0
  outer loop
   vertex 27.4213295 -39.9210434 0.289410293
   vertex 27.0106831 -39.9210434 -0.213843808
   vertex 27.4106483 -39.9210434 -0.194299966
  endloop
 endfacet
facet normal -0 -1 0
  outer loop
   vertex 27.0226212 -39.9210434 0.326593637
   vertex 26.6237583 -39.9210434 0.356889665
   vertex 27.0106831 -39.9210434 -0.213843808
  endloop
 endfacet
facet normal -0 -1 0
  outer loop
   vertex 26.6237583 -39.9210434 0.356889665
   vertex 26.2345257 -39.9210434 0.377878368
   vertex 26.6108723 -39.9210434 -0.226505443
  endloop
 endfacet
facet normal 0 -1 -0
  outer loop
   vertex 26.6237583 -39.9210434 0.356889665
   vertex 26.6108723 -39.9210434 -0.226505443
   vertex 27.0106831 -39.9210434 -0.213843808
  endloop
 endfacet
facet normal -0 -1 0
  outer loop
   vertex 26.2345257 -39.9210434 0.377878368
   vertex 25.8644733 -39.9210434 0.387446076
   vertex 26.2210922 -39.9210434 -0.230288625
  endloop
 endfacet
facet normal 0 -1 -0
  outer loop
   vertex 26.2345257 -39.9210434 0.377878368
   vertex 26.2210922 -39.9210434 -0.230288625
   vertex 26.6108723 -39.9210434 -0.226505443
  endloop
 endfacet
facet normal 0 -1 0
  outer loop
   vertex 25.8644733 -39.9210434 0.387446076
   vertex 25.5226917 -39.9210434 0.384096861
   vertex 25.8509808 -39.9210434 -0.223513618
  endloop
 endfacet
facet normal 0 -1 -0
  outer loop
   vertex 25.8644733 -39.9210434 0.387446076
   vertex 25.8509808 -39.9210434 -0.223513618
   vertex 26.2210922 -39.9210434 -0.230288625
  endloop
 endfacet
facet normal 0 -1 0
  outer loop
   vertex 25.5226917 -39.9210434 0.384096861
   vertex 25.2107754 -39.9210434 0.364859343
   vertex 25.2123947 -39.9210434 -0.177171007
  endloop
 endfacet
facet normal 0 -1 0
  outer loop
   vertex 25.5226917 -39.9210434 0.384096861
   vertex 25.2123947 -39.9210434 -0.177171007
   vertex 25.5096779 -39.9210434 -0.205077663
  endloop
 endfacet
facet normal 0 -1 -0
  outer loop
   vertex 25.5226917 -39.9210434 0.384096861
   vertex 25.5096779 -39.9210434 -0.205077663
   vertex 25.8509808 -39.9210434 -0.223513618
  endloop
 endfacet
facet normal 0 -1 0
  outer loop
   vertex 25.2107754 -39.9210434 0.364859343
   vertex 24.9351864 -39.9210434 0.319885015
   vertex 24.9676819 -39.9210434 -0.149197981
  endloop
 endfacet
facet normal 0 -1 -0
  outer loop
   vertex 25.2107754 -39.9210434 0.364859343
   vertex 24.9676819 -39.9210434 -0.149197981
   vertex 25.2123947 -39.9210434 -0.177171007
  endloop
 endfacet
facet normal 0 -1 0
  outer loop
   vertex 24.9351864 -39.9210434 0.319885015
   vertex 24.7137241 -39.9210434 0.248647988
   vertex 24.7705441 -39.9210434 -0.123481587
  endloop
 endfacet
facet normal 0 -1 -0
  outer loop
   vertex 24.9351864 -39.9210434 0.319885015
   vertex 24.7705441 -39.9210434 -0.123481587
   vertex 24.9676819 -39.9210434 -0.149197981
  endloop
 endfacet
facet normal 0 -1 0
  outer loop
   vertex 24.7137241 -39.9210434 0.248647988
   vertex 24.5591145 -39.9210434 0.162186369
   vertex 24.6185741 -39.9210434 -0.0954370871
  endloop
 endfacet
facet normal 0 -1 -0
  outer loop
   vertex 24.7137241 -39.9210434 0.248647988
   vertex 24.6185741 -39.9210434 -0.0954370871
   vertex 24.7705441 -39.9210434 -0.123481587
  endloop
 endfacet
facet normal 0 -1 0
  outer loop
   vertex 24.5591145 -39.9210434 0.162186369
   vertex 24.4764061 -39.9210434 0.0755715892
   vertex 24.5142574 -39.9210434 -0.0570131019
  endloop
 endfacet
facet normal 0 -1 -0
  outer loop
   vertex 24.5591145 -39.9210434 0.162186369
   vertex 24.5142574 -39.9210434 -0.0570131019
   vertex 24.6185741 -39.9210434 -0.0954370871
  endloop
 endfacet
facet normal 0 -1 -0
  outer loop
   vertex 24.4764061 -39.9210434 0.0755715892
   vertex 24.4639034 -39.9210434 0
   vertex 24.5142574 -39.9210434 -0.0570131019
  endloop
 endfacet
endsolid MATLAB_1
